ply
format ascii 1.0
comment element vertex 186
comment element face 172
element vertex 186
property float x
property float y
property float z
element face 172
property list uchar int vertex_indices
end_header
0	783	416
-165	838	397
-150	903	457
0	849	481
0	962	537
-123	985	503
-81	1083	542
0	1074	576
0	1169	563
-43	1170	546
-31	1240	558
0	1240	578
0	1342	650
-43	1361	629
-51	1421	679
-20	1426	700
0	1426	724
-212	861	350
-207	932	414
-199	1008	464
-177	1096	506
-80	1180	526
-53	1245	533
-81	1387	580
-61	1406	609
-188	1133	497
-194	1157	485
-196	1188	451
-120	1220	467
-100	1200	493
-195	1212	445
-130	1229	459
-81	1252	506
-103	1265	480
-130	1229	459
-232	947	398
-250	1028	440
-268	1121	467
-270	1132	466
-269	1158	453
-257	1189	428
-245	1221	424
-317	949	310
-322	1014	350
-321	1070	388
-320	1140	420
-318	1166	415
-297	1206	404
-279	1235	410
-374	1018	268
-373	1072	303
-370	1114	341
-364	1166	374
-360	1181	374
-324	1228	371
-303	1258	384
-404	1083	209
-402	1115	240
-402	1155	275
-396	1212	313
-344	1263	343
-323	1285	358
-295	1333	377
-278	1280	384
-235	1288	409
-238	1330	414
-182	1311	439
-185	1283	429
-158	1272	444
-147	1295	456
-134	1260	455
-388	1285	305
-372	1382	368
-309	1403	399
-237	1382	437
-170	1346	462
-137	1315	472
-128	1305	478
-101	1340	534
-131	1424	535
-221	1477	487
-318	1528	446
-379	1556	375
-404	1436	347
-405	1358	320
-429	1444	278
-429	1444	195
-429	1431	76
-424	1156	174
-426	1214	174
-442	1290	179
-404	1565	319
-396	1587	214
-392	1605	88
-201	1566	526
-272	1625	487
-319	1661	396
-365	1721	311
-362	1740	195
-359	1751	74
0	1477	737
-25	1467	706
-55	1463	679
-79	1468	634
-126	1489	589
-106	1525	558
-119	1472	567
0	1512	711
-15	1508	692
-46	1497	672
-78	1502	642
-102	1517	607
-93	1530	601
-54	1538	612
-24	1536	638
0	1536	663
0	1551	644
-26	1558	627
-63	1555	603
-72	1517	644
-72	1523	619
-65	1529	618
0	1619	661
-31	1619	642
-83	1631	621
-116	1661	597
0	1677	645
-29	1668	632
-69	1671	618
-106	1683	600
-150	1699	569
-143	1643	568
-212	1702	540
-179	1642	542
0	1701	656
-85	1701	622
0	1738	651
-80	1731	615
0	1765	633
-79	1758	606
-151	1741	568
-230	1769	522
0	1792	637
-86	1791	604
-156	1784	563
0	1845	639
-88	1840	600
-162	1831	555
-231	1792	512
-253	1806	479
0	1903	626
-89	1893	585
-161	1871	534
-228	1847	496
-274	1829	430
-295	1765	420
0	1979	585
-73	1964	563
-143	1941	510
-214	1911	454
-300	1840	341
-324	1816	335
-345	1785	330
-350	1770	213
-344	1787	218
-329	1811	224
-350	1770	103
0	1967	459
-61	1954	439
-100	1941	393
-149	1922	296
-201	1904	215
-275	1868	118
0	1997	345
-89	1980	303
-139	1957	255
-183	1941	197
-259	1910	125
0	2029	284
-77	2011	249
-170	1980	166
-290	1922	55
0	2137	181
-72	2117	181
-190	2082	120
-330	2020	0

4	3	2	1	0
4	4	5	2	3
4	7	6	5	4
4	8	9	6	7
4	11	10	9	8
4	12	13	10	11
5	16	15	14	13	12
4	2	18	17	1
4	5	19	18	2
4	6	20	19	5
4	9	21	20	6
4	10	22	21	9
4	13	23	22	10
4	14	24	23	13
3	21	25	20
3	21	26	25	
5	29	28	27	26	21
4	31	30	27	28
4	22	32	29	21
4	32	33	28	29
3	33	34	28
3	18	35	17
4	19	36	35	18
4	20	37	36	19
4	25	38	37	20
4	26	39	38	25
4	27	40	39	26
4	30	41	40	27
4	35	43	42	17
4	36	44	43	35
4	37	45	44	36
3	38	45	37
4	39	46	45	38
4	40	47	46	39
4	41	48	47	40
4	43	50	49	42
4	44	51	50	43
4	45	52	51	44
4	46	53	52	45
4	47	54	53	46
4	48	55	54	47
4	50	57	56	49
4	51	58	57	50
4	52	59	58	51
3	53	59	52
4	54	60	59	53
4	55	61	60	54
4	63	62	61	55
4	65	62	63	64
4	66	65	64	67
4	69	66	67	68
4	33	69	68	70
3	60	71	59
4	61	62	71	60
3	72	71	62
3	73	72	62
4	74	73	62	65
4	75	74	65	66
4	76	75	66	69
4	77	76	69	33
5	78	77	33	32	22
4	23	79	78	22
5	78	79	75	76	77
4	79	80	74	75
4	80	81	73	74
3	83	72	73
3	83	84	72
3	72	84	71
4	81	82	83	73
4	57	89	88	56
4	58	90	89	57
3	59	90	58
3	71	90	59
3	84	90	71
3	83	90	84
3	85	90	83
3	86	90	85
3	87	90	86
4	82	91	85	83
4	91	92	86	85
4	92	93	87	86
4	105	94	80	79
4	94	95	81	80
4	95	96	82	81
4	96	97	91	82
4	97	98	92	91
4	98	99	93	92
4	100	101	15	16
4	101	102	14	15
4	102	103	24	14
5	103	104	106	23	24
3	105	106	104
4	106	105	79	23
3	107	108	100
3	108	101	100
4	108	109	102	101
4	109	110	103	102
4	110	111	104	103
4	111	112	105	104
4	113	118	105	112
4	117	118	113	114
4	116	117	114	115
4	115	114	108	107
4	119	110	109	108
4	119	120	111	110
4	120	121	112	111
3	121	113	112
3	114	113	121
4	122	123	117	116
4	123	124	118	117
4	124	125	105	118
4	125	130	131	105
4	126	127	123	122
4	127	128	124	123
4	128	129	125	124
3	129	130	125
3	130	132	131
4	131	132	133	105
4	133	95	94	105
3	132	95	133
5	134	135	128	127	126
4	135	130	129	128
4	136	137	135	134
3	137	130	135
4	138	139	137	136
4	139	140	130	137
4	142	143	139	138
4	143	144	140	139
4	144	141	130	140
3	141	132	130
3	141	95	132
3	141	96	95
4	145	146	143	142
4	146	147	144	143
4	147	148	141	144
3	148	149	141
4	150	151	146	145
4	151	152	147	146
4	152	153	148	147
4	153	154	149	148
4	154	155	141	149
3	141	155	96
4	156	157	151	150
4	157	158	152	151
4	158	159	153	152
4	159	160	154	153
3	154	160	155
3	160	161	155
3	161	162	155
4	155	162	97	96
4	162	163	98	97
4	161	164	163	162
4	160	165	164	161
4	163	166	99	98
3	164	166	163
3	165	166	164
5	167	168	158	157	156
4	168	169	159	158
4	169	170	160	159
4	170	171	165	160
4	171	172	166	165
5	173	174	169	168	167
4	174	175	170	169
4	175	176	171	170
4	176	177	172	171
4	178	179	174	173
5	179	180	176	175	174
4	180	181	177	176
4	182	183	179	178
4	183	184	180	179
4	184	185	181	180
4	177	181	166	172