ply
format ascii 1.0
comment element vertex 186
comment element face 172
element vertex 186
property float x
property float y
property float z
element face 172
property list uchar int vertex_indices
end_header
0	783	416
165	838	397
150	903	457
0	849	481
0	962	537
123	985	503
81	1083	542
0	1074	576
0	1169	563
43	1170	546
31	1240	558
0	1240	578
0	1342	650
43	1361	629
51	1421	679
20	1426	700
0	1426	724
212	861	350
207	932	414
199	1008	464
177	1096	506
80	1180	526
53	1245	533
81	1387	580
61	1406	609
188	1133	497
194	1157	485
196	1188	451
120	1220	467
100	1200	493
195	1212	445
130	1229	459
81	1252	506
103	1265	480
130	1229	459
232	947	398
250	1028	440
268	1121	467
270	1132	466
269	1158	453
257	1189	428
245	1221	424
317	949	310
322	1014	350
321	1070	388
320	1140	420
318	1166	415
297	1206	404
279	1235	410
374	1018	268
373	1072	303
370	1114	341
364	1166	374
360	1181	374
324	1228	371
303	1258	384
404	1083	209
402	1115	240
402	1155	275
396	1212	313
344	1263	343
323	1285	358
295	1333	377
278	1280	384
235	1288	409
238	1330	414
182	1311	439
185	1283	429
158	1272	444
147	1295	456
134	1260	455
388	1285	305
372	1382	368
309	1403	399
237	1382	437
170	1346	462
137	1315	472
128	1305	478
101	1340	534
131	1424	535
221	1477	487
318	1528	446
379	1556	375
404	1436	347
405	1358	320
429	1444	278
429	1444	195
429	1431	76
424	1156	174
426	1214	174
442	1290	179
404	1565	319
396	1587	214
392	1605	88
201	1566	526
272	1625	487
319	1661	396
365	1721	311
362	1740	195
359	1751	74
0	1477	737
25	1467	706
55	1463	679
79	1468	634
126	1489	589
106	1525	558
119	1472	567
0	1512	711
15	1508	692
46	1497	672
78	1502	642
102	1517	607
93	1530	601
54	1538	612
24	1536	638
0	1536	663
0	1551	644
26	1558	627
63	1555	603
72	1517	644
72	1523	619
65	1529	618
0	1619	661
31	1619	642
83	1631	621
116	1661	597
0	1677	645
29	1668	632
69	1671	618
106	1683	600
150	1699	569
143	1643	568
212	1702	540
179	1642	542
0	1701	656
85	1701	622
0	1738	651
80	1731	615
0	1765	633
79	1758	606
151	1741	568
230	1769	522
0	1792	637
86	1791	604
156	1784	563
0	1845	639
88	1840	600
162	1831	555
231	1792	512
253	1806	479
0	1903	626
89	1893	585
161	1871	534
228	1847	496
274	1829	430
295	1765	420
0	1979	585
73	1964	563
143	1941	510
214	1911	454
300	1840	341
324	1816	335
345	1785	330
350	1770	213
344	1787	218
329	1811	224
350	1770	103
0	1967	459
61	1954	439
100	1941	393
149	1922	296
201	1904	215
275	1868	118
0	1997	345
89	1980	303
139	1957	255
183	1941	197
259	1910	125
0	2029	284
77	2011	249
170	1980	166
290	1922	55
0	2137	181
72	2117	181
190	2082	120
330	2020	0

4	0	1	2	3
4	3	2	5	4
4	4	5	6	7
4	7	6	9	8
4	8	9	10	11
4	11	10	13	12
5	12	13	14	15	16
4	1	17	18	2
4	2	18	19	5
4	5	19	20	6
4	6	20	21	9
4	9	21	22	10
4	10	22	23	13
4	13	23	24	14
3	20	25	21
3	25	26	21	
5	21	26	27	28	29
4	28	27	30	31
4	21	29	32	22
4	29	28	33	32
3	28	34	33
3	17	35	18
4	18	35	36	19
4	19	36	37	20
4	20	37	38	25
4	25	38	39	26
4	26	39	40	27
4	27	40	41	30
4	17	42	43	35
4	35	43	44	36
4	36	44	45	37
3	37	45	38
4	38	45	46	39
4	39	46	47	40
4	40	47	48	41
4	42	49	50	43
4	43	50	51	44
4	44	51	52	45
4	45	52	53	46
4	46	53	54	47
4	47	54	55	48
4	49	56	57	50
4	50	57	58	51
4	51	58	59	52
3	52	59	53
4	53	59	60	54
4	54	60	61	55
4	55	61	62	63
4	64	63	62	65
4	67	64	65	66
4	68	67	66	69
4	70	68	69	33
3	59	71	60
4	60	71	62	61
3	62	71	72
3	62	72	73
4	65	62	73	74
4	66	65	74	75
4	69	66	75	76
4	33	69	76	77
5	22	32	33	77	78
4	22	78	79	23
5	77	76	75	79	78
4	75	74	80	79
4	74	73	81	80
3	73	72	83
3	72	84	83
3	71	84	72
4	73	83	82	81
4	56	88	89	57
4	57	89	90	58
3	58	90	59
3	59	90	71
3	71	90	84
3	84	90	83
3	83	90	85
3	85	90	86
3	86	90	87
4	83	85	91	82
4	85	86	92	91
4	86	87	93	92
4	79	80	94	105
4	80	81	95	94
4	81	82	96	95
4	82	91	97	96
4	91	92	98	97
4	92	93	99	98
4	16	15	101	100
4	15	14	102	101
4	14	24	103	102
5	24	23	106	104	103
3	104	106	105
4	23	79	105	106
3	100	108	107
3	100	101	108
4	101	102	109	108
4	102	103	110	109
4	103	104	111	110
4	104	105	112	111
4	112	105	118	113
4	114	113	118	117
4	115	114	117	116
4	107	108	114	115
4	108	109	110	119
4	110	111	120	119
4	111	112	121	120
3	112	113	121
3	121	113	114
4	116	117	123	122
4	117	118	124	123
4	118	105	125	124
4	105	131	130	125
4	122	123	127	126
4	123	124	128	127
4	124	125	129	128
3	125	130	129
3	131	132	130
4	105	133	132	131
4	105	94	95	133
3	133	95	132
5	126	127	128	135	134
4	128	129	130	135
4	134	135	137	136
3	135	130	137
4	136	137	139	138
4	137	130	140	139
4	138	139	143	142
4	139	140	144	143
4	140	130	141	144
3	130	132	141
3	132	95	141
3	95	96	141
4	142	143	146	145
4	143	144	147	146
4	144	141	148	147
3	141	149	148
4	145	146	151	150
4	146	147	152	151
4	147	148	153	152
4	148	149	154	153
4	149	141	155	154
3	96	155	141
4	150	151	157	156
4	151	152	158	157
4	152	153	159	158
4	153	154	160	159
3	155	160	154
3	155	161	160
3	155	162	161
4	96	97	162	155
4	97	98	163	162
4	162	163	164	161
4	161	164	165	160
4	98	99	166	163
3	163	166	164
3	164	166	165
5	156	157	158	168	167
4	158	159	169	168
4	159	160	170	169
4	160	165	171	170
4	165	166	172	171
5	167	168	169	174	173
4	169	170	175	174
4	170	171	176	175
4	171	172	177	176
4	173	174	179	178
5	174	175	176	180	179
4	176	177	181	180
4	178	179	183	182
4	179	180	184	183
4	180	181	185	184
4	172	166	181	177
