ply
format ascii 1.0
element vertex 24
property float x
property float y
property float z
element face 14
property list uchar int vertex_indices
end_header
1926	528	0
1653	321	0
1416	441	0
976	601	0
903	804	0
903	881	0
903	1078	0
939	1114	0
1066	1298	0
1133	1351	0
1306	1481	0
1926	1194	0

1926	528	100
1653	321	100
1416	441	100
976	601	100
903	804	100
903	881	100
903	1078	100
939	1114	100
1066	1298	100
1133	1351	100
1306	1481	100
1926	1194	100

12	0	1	2	3	4	5	6	7	8	9	10	11
12	23	22	21	20	19	18	17	16	15	14	13	12
4	13	1	0	12
4	14	2	1	13
4	15	3	2	14
4	16	4 	3	15
4	17	5	4	16
4	18	6	5	17
4	19	7	6	18
4	20	8	7	19
4	21	9	8	20
4	22	10	9	21
4	23	11	10	22
4	23	12	0	11