ply
format ascii 1.0
element vertex 2232
property float x
property float y
property float z
element face 0
property list uchar int vertex_indices
end_header

205.0	37.0	0.0
201.88676	37.0	35.59123
192.6416	37.0	70.10145
177.54533	37.0	102.48247
157.05646	37.0	131.75078
131.7973	37.0	157.01743
102.53506	37.0	177.51495
70.158516	37.0	192.62082
35.651047	37.0	201.8762
0.060743667	37.0	204.99998
-35.531406	37.0	201.89731
-70.04436	37.0	192.66237
-102.42986	37.0	177.57568
-131.70425	37.0	157.09549
-156.97836	37.0	131.84383
-177.48457	37.0	102.58766
-192.60002	37.0	70.21559
-201.86563	37.0	35.71086
-204.99997	37.0	0.12148733
-201.90782	37.0	-35.471577
-192.6831	37.0	-69.98726
-177.60603	37.0	-102.37723
-157.13452	37.0	-131.65767
-131.8903	37.0	-156.9393
-102.64023	37.0	-177.45418
-70.27264	37.0	-192.57922
-35.770653	37.0	-201.85506
-0.18220654	37.0	-204.99991
35.411774	37.0	-201.91832
69.93019	37.0	-192.70384
102.324615	37.0	-177.63635
131.61113	37.0	-157.17351
156.9002	37.0	-131.93683
177.42374	37.0	-102.69282
192.55838	37.0	-70.32972
201.84444	37.0	-35.830486
245.0	60.0	0.0
241.2793	60.0	42.53586
230.23021	60.0	83.77978
212.18832	60.0	122.47904
187.70163	60.0	157.45825
157.51385	60.0	187.65497
122.54189	60.0	212.15202
83.847984	60.0	230.20537
42.60735	60.0	241.2667
0.072596096	60.0	244.99998
-42.464363	60.0	241.2919
-83.71155	60.0	230.25502
-122.416176	60.0	212.2246
-157.40263	60.0	187.74826
-187.60829	60.0	157.56946
-212.1157	60.0	122.60476
-230.18051	60.0	83.91619
-241.25404	60.0	42.678837
-244.99995	60.0	0.14519218
-241.30447	60.0	-42.39286
-230.27982	60.0	-83.64331
-212.26088	60.0	-122.35327
-187.7949	60.0	-157.34697
-157.625	60.0	-187.56161
-122.66759	60.0	-212.07939
-83.98437	60.0	-230.15565
-42.750294	60.0	-241.2414
-0.21775904	60.0	-244.9999
42.32139	60.0	-241.31702
83.5751	60.0	-230.30458
122.2904	60.0	-212.2971
157.29135	60.0	-187.8415
187.51488	60.0	-157.68059
212.04301	60.0	-122.73044
230.13075	60.0	-84.05259
241.22871	60.0	-42.8218
245.0	102.0	0.0
241.2793	102.0	42.53586
230.23021	102.0	83.77978
212.18832	102.0	122.47904
187.70163	102.0	157.45825
157.51385	102.0	187.65497
122.54189	102.0	212.15202
83.847984	102.0	230.20537
42.60735	102.0	241.2667
0.072596096	102.0	244.99998
-42.464363	102.0	241.2919
-83.71155	102.0	230.25502
-122.416176	102.0	212.2246
-157.40263	102.0	187.74826
-187.60829	102.0	157.56946
-212.1157	102.0	122.60476
-230.18051	102.0	83.91619
-241.25404	102.0	42.678837
-244.99995	102.0	0.14519218
-241.30447	102.0	-42.39286
-230.27982	102.0	-83.64331
-212.26088	102.0	-122.35327
-187.7949	102.0	-157.34697
-157.625	102.0	-187.56161
-122.66759	102.0	-212.07939
-83.98437	102.0	-230.15565
-42.750294	102.0	-241.2414
-0.21775904	102.0	-244.9999
42.32139	102.0	-241.31702
83.5751	102.0	-230.30458
122.2904	102.0	-212.2971
157.29135	102.0	-187.8415
187.51488	102.0	-157.68059
212.04301	102.0	-122.73044
230.13075	102.0	-84.05259
241.22871	102.0	-42.8218
210.0	122.0	0.0
206.81082	122.0	36.45931
197.34018	122.0	71.81124
181.8757	122.0	104.98204
160.8871	122.0	134.96422
135.01187	122.0	160.8471
105.03591	122.0	181.84459
71.8697	122.0	197.3189
36.520584	122.0	206.80002
0.062225223	122.0	209.99998
-36.398026	122.0	206.82162
-71.752754	122.0	197.36145
-104.928154	122.0	181.9068
-134.91655	122.0	160.92708
-160.80711	122.0	135.05952
-181.81346	122.0	105.0898
-197.29759	122.0	71.92817
-206.78918	122.0	36.58186
-209.99997	122.0	0.12445043
-206.8324	122.0	-36.33674
-197.3827	122.0	-71.69427
-181.9379	122.0	-104.87423
-160.96707	122.0	-134.86884
-135.10715	122.0	-160.76709
-105.14365	122.0	-181.78233
-71.9866	122.0	-197.27628
-36.64311	122.0	-206.77835
-0.1866506	122.0	-209.99991
36.275475	122.0	-206.84315
71.6358	122.0	-197.40393
104.820335	122.0	-181.96895
134.82115	122.0	-161.007
160.72704	122.0	-135.1548
181.75114	122.0	-105.19752
197.25493	122.0	-72.045074
206.76747	122.0	-36.7044
210.0	130.0	0.0
206.81082	130.0	36.45931
197.34018	130.0	71.81124
181.8757	130.0	104.98204
160.8871	130.0	134.96422
135.01187	130.0	160.8471
105.03591	130.0	181.84459
71.8697	130.0	197.3189
36.520584	130.0	206.80002
0.062225223	130.0	209.99998
-36.398026	130.0	206.82162
-71.752754	130.0	197.36145
-104.928154	130.0	181.9068
-134.91655	130.0	160.92708
-160.80711	130.0	135.05952
-181.81346	130.0	105.0898
-197.29759	130.0	71.92817
-206.78918	130.0	36.58186
-209.99997	130.0	0.12445043
-206.8324	130.0	-36.33674
-197.3827	130.0	-71.69427
-181.9379	130.0	-104.87423
-160.96707	130.0	-134.86884
-135.10715	130.0	-160.76709
-105.14365	130.0	-181.78233
-71.9866	130.0	-197.27628
-36.64311	130.0	-206.77835
-0.1866506	130.0	-209.99991
36.275475	130.0	-206.84315
71.6358	130.0	-197.40393
104.820335	130.0	-181.96895
134.82115	130.0	-161.007
160.72704	130.0	-135.1548
181.75114	130.0	-105.19752
197.25493	130.0	-72.045074
206.76747	130.0	-36.7044
201.0	153.0	0.0
197.94751	153.0	34.896767
188.88275	153.0	68.73361
174.08104	153.0	100.48281
153.99194	153.0	129.18004
129.22565	153.0	153.95366
100.53437	153.0	174.05125
68.78957	153.0	188.86237
34.955418	153.0	197.93716
0.059558425	153.0	200.99998
-34.838108	153.0	197.95784
-68.677635	153.0	188.9031
-100.43123	153.0	174.1108
-129.13441	153.0	154.03021
-153.91537	153.0	129.27127
-174.02145	153.0	100.585945
-188.84198	153.0	68.84553
-197.92679	153.0	35.014065
-200.99997	153.0	0.11911684
-197.96815	153.0	-34.77945
-188.92345	153.0	-68.62166
-174.14055	153.0	-100.37962
-154.06848	153.0	-129.08875
-129.31683	153.0	-153.87708
-100.63749	153.0	-173.99165
-68.90146	153.0	-188.82158
-35.07269	153.0	-197.91641
-0.17865129	153.0	-200.99992
34.72081	153.0	-197.97845
68.5657	153.0	-188.94376
100.32804	153.0	-174.17027
129.0431	153.0	-154.1067
153.83873	153.0	-129.36244
173.96182	153.0	-100.68906
188.80115	153.0	-68.95743
197.906	153.0	-35.131355
225.0	163.0	0.0
221.58302	163.0	39.063545
211.43591	163.0	76.94061
194.86684	163.0	112.48076
172.37904	163.0	144.6045
144.65558	163.0	172.3362
112.538475	163.0	194.8335
77.00325	163.0	211.4131
39.1292	163.0	221.57146
0.06666988	163.0	224.99998
-38.997883	163.0	221.5946
-76.87795	163.0	211.4587
-112.42302	163.0	194.90015
-144.55344	163.0	172.42188
-172.29333	163.0	144.70663
-194.80014	163.0	112.596214
-211.39027	163.0	77.065895
-221.55984	163.0	39.194847
-224.99995	163.0	0.13333975
-221.60614	163.0	-38.93222
-211.48146	163.0	-76.815285
-194.93346	163.0	-112.36525
-172.4647	163.0	-144.50232
-144.75766	163.0	-172.25046
-112.65391	163.0	-194.76678
-77.1285	163.0	-211.36745
-39.26047	163.0	-221.54822
-0.19998279	163.0	-224.99991
38.86658	163.0	-221.61766
76.75265	163.0	-211.50421
112.3075	163.0	-194.96674
144.45123	163.0	-172.5075
172.20753	163.0	-144.80872
194.73338	163.0	-112.711624
211.34456	163.0	-77.191154
221.53658	163.0	-39.32614
225.0	174.0	0.0
221.58302	174.0	39.063545
211.43591	174.0	76.94061
194.86684	174.0	112.48076
172.37904	174.0	144.6045
144.65558	174.0	172.3362
112.538475	174.0	194.8335
77.00325	174.0	211.4131
39.1292	174.0	221.57146
0.06666988	174.0	224.99998
-38.997883	174.0	221.5946
-76.87795	174.0	211.4587
-112.42302	174.0	194.90015
-144.55344	174.0	172.42188
-172.29333	174.0	144.70663
-194.80014	174.0	112.596214
-211.39027	174.0	77.065895
-221.55984	174.0	39.194847
-224.99995	174.0	0.13333975
-221.60614	174.0	-38.93222
-211.48146	174.0	-76.815285
-194.93346	174.0	-112.36525
-172.4647	174.0	-144.50232
-144.75766	174.0	-172.25046
-112.65391	174.0	-194.76678
-77.1285	174.0	-211.36745
-39.26047	174.0	-221.54822
-0.19998279	174.0	-224.99991
38.86658	174.0	-221.61766
76.75265	174.0	-211.50421
112.3075	174.0	-194.96674
144.45123	174.0	-172.5075
172.20753	174.0	-144.80872
194.73338	174.0	-112.711624
211.34456	174.0	-77.191154
221.53658	174.0	-39.32614
207.0	192.0	0.0
203.85638	192.0	35.93846
194.52104	192.0	70.78536
179.27748	192.0	103.48229
158.58871	192.0	133.03615
133.08313	192.0	158.5493
103.5354	192.0	179.24681
70.84299	192.0	194.50005
35.998863	192.0	203.84573
0.06133629	192.0	206.99998
-35.87805	192.0	203.86703
-70.727715	192.0	194.54199
-103.42918	192.0	179.30814
-132.98917	192.0	158.62813
-158.50987	192.0	133.13011
-179.21613	192.0	103.58852
-194.47905	192.0	70.90062
-203.83505	192.0	36.05926
-206.99997	192.0	0.122672565
-203.87766	192.0	-35.817642
-194.56294	192.0	-70.67007
-179.33878	192.0	-103.37602
-158.66754	192.0	-132.94214
-133.17705	192.0	-158.47041
-103.641594	192.0	-179.18544
-70.95822	192.0	-194.45805
-36.119633	192.0	-203.82437
-0.18398418	192.0	-206.99991
35.75725	192.0	-203.88826
70.612434	192.0	-194.58388
103.32291	192.0	-179.36938
132.89514	192.0	-158.70691
158.43094	192.0	-133.22401
179.15471	192.0	-103.694695
194.437	192.0	-71.01586
203.81364	192.0	-36.18005
207.0	216.0	0.0
203.85638	216.0	35.93846
194.52104	216.0	70.78536
179.27748	216.0	103.48229
158.58871	216.0	133.03615
133.08313	216.0	158.5493
103.5354	216.0	179.24681
70.84299	216.0	194.50005
35.998863	216.0	203.84573
0.06133629	216.0	206.99998
-35.87805	216.0	203.86703
-70.727715	216.0	194.54199
-103.42918	216.0	179.30814
-132.98917	216.0	158.62813
-158.50987	216.0	133.13011
-179.21613	216.0	103.58852
-194.47905	216.0	70.90062
-203.83505	216.0	36.05926
-206.99997	216.0	0.122672565
-203.87766	216.0	-35.817642
-194.56294	216.0	-70.67007
-179.33878	216.0	-103.37602
-158.66754	216.0	-132.94214
-133.17705	216.0	-158.47041
-103.641594	216.0	-179.18544
-70.95822	216.0	-194.45805
-36.119633	216.0	-203.82437
-0.18398418	216.0	-206.99991
35.75725	216.0	-203.88826
70.612434	216.0	-194.58388
103.32291	216.0	-179.36938
132.89514	216.0	-158.70691
158.43094	216.0	-133.22401
179.15471	216.0	-103.694695
194.437	216.0	-71.01586
203.81364	216.0	-36.18005
223.0	208.0	0.0
219.6134	208.0	38.716312
209.55647	208.0	76.2567
193.13467	208.0	111.48093
170.84679	208.0	143.31914
143.36975	208.0	170.80432
111.53813	208.0	193.10164
76.31878	208.0	209.53387
38.781384	208.0	219.60193
0.06607726	208.0	222.99998
-38.651237	208.0	219.62488
-76.19459	208.0	209.57906
-111.423706	208.0	193.1677
-143.26852	208.0	170.88924
-170.76184	208.0	143.42036
-193.06857	208.0	111.59535
-209.51125	208.0	76.38086
-219.59042	208.0	38.84645
-222.99995	208.0	0.13215451
-219.63632	208.0	-38.586155
-209.60162	208.0	-76.132484
-193.20071	208.0	-111.36644
-170.93169	208.0	-143.21785
-143.47092	208.0	-170.71935
-111.652534	208.0	-193.03552
-76.44292	208.0	-209.48862
-38.91149	208.0	-219.5789
-0.19820517	208.0	-222.99991
38.5211	208.0	-219.64774
76.0704	208.0	-209.62418
111.30922	208.0	-193.23369
143.16722	208.0	-170.9741
170.6768	208.0	-143.52151
193.00241	208.0	-111.70975
209.46594	208.0	-76.50501
219.56735	208.0	-38.976578
255.0	170.0	0.0
251.12743	170.0	44.27202
239.62737	170.0	87.19936
220.84908	170.0	127.47819
195.36292	170.0	163.88512
163.943	170.0	195.31435
127.54361	170.0	220.8113
87.27035	170.0	239.6015
44.346424	170.0	251.11432
0.0755592	170.0	254.99998
-44.1976	170.0	251.14055
-87.12834	170.0	239.65318
-127.41276	170.0	220.88683
-163.82724	170.0	195.41145
-195.26578	170.0	164.00085
-220.77348	170.0	127.60904
-239.57564	170.0	87.34135
-251.10115	170.0	44.42083
-254.99995	170.0	0.15111838
-251.15364	170.0	-44.123184
-239.679	170.0	-87.05733
-220.92459	170.0	-127.347275
-195.46	170.0	-163.7693
-164.05867	170.0	-195.21718
-127.67442	170.0	-220.73569
-87.4123	170.0	-239.54977
-44.4952	170.0	-251.08798
-0.22664717	170.0	-254.9999
44.04879	170.0	-251.16669
86.98633	170.0	-239.70477
127.28184	170.0	-220.9623
163.71141	170.0	-195.50851
195.16855	170.0	-164.11653
220.69783	170.0	-127.739845
239.52383	170.0	-87.48331
251.07478	170.0	-44.56963
300.0	170.0	0.0
295.44403	170.0	52.084724
281.91455	170.0	102.58749
259.82245	170.0	149.97433
229.83873	170.0	192.80602
192.87411	170.0	229.78159
150.0513	170.0	259.77798
102.671	170.0	281.88412
52.172264	170.0	295.4286
0.088893175	170.0	299.99997
-51.997177	170.0	295.45947
-102.50394	170.0	281.94492
-149.89735	170.0	259.86685
-192.73793	170.0	229.89584
-229.72444	170.0	192.94218
-259.73352	170.0	150.12828
-281.8537	170.0	102.754524
-295.41312	170.0	52.2598
-299.99994	170.0	0.17778634
-295.47485	170.0	-51.909626
-281.97528	170.0	-102.42039
-259.9113	170.0	-149.82033
-229.95294	170.0	-192.66975
-193.01021	170.0	-229.66728
-150.2052	170.0	-259.68906
-102.838005	170.0	-281.82327
-52.347298	170.0	-295.39764
-0.26664373	170.0	-299.99988
51.822105	170.0	-295.49023
102.33686	170.0	-282.0056
149.74333	170.0	-259.95563
192.60165	170.0	-230.01001
229.61006	170.0	-193.07828
259.6445	170.0	-150.28217
281.79276	170.0	-102.92154
295.38208	170.0	-52.434856
335.0	202.0	0.0
329.9125	202.0	58.161278
314.80457	202.0	114.55602
290.13507	202.0	167.47134
256.65323	202.0	215.30005
215.37608	202.0	256.58945
167.55728	202.0	290.08542
114.649284	202.0	314.7706
58.25903	202.0	329.89526
0.09926404	202.0	334.99997
-58.063515	202.0	329.92975
-114.46273	202.0	314.8385
-167.38539	202.0	290.18466
-215.22401	202.0	256.717
-256.52563	202.0	215.4521
-290.03577	202.0	167.64325
-314.73663	202.0	114.74255
-329.878	202.0	58.356773
-334.99994	202.0	0.19852807
-329.94693	202.0	-57.96575
-314.8724	202.0	-114.36943
-290.23425	202.0	-167.29936
-256.7808	202.0	-215.1479
-215.52806	202.0	-256.4618
-167.72914	202.0	-289.9861
-114.83577	202.0	-314.70264
-58.45448	202.0	-329.8607
-0.29775217	202.0	-334.99985
57.86802	202.0	-329.96408
114.27616	202.0	-314.90628
167.2134	202.0	-290.28378
215.07184	202.0	-256.8445
256.3979	202.0	-215.60408
289.93637	202.0	-167.8151
314.66858	202.0	-114.92905
329.84335	202.0	-58.552258
345.0	228.0	0.0
339.76065	228.0	59.897434
324.20172	228.0	117.97561
298.7958	228.0	172.47049
264.31454	228.0	221.72691
221.80522	228.0	264.24884
172.55899	228.0	298.7447
118.07165	228.0	324.16675
59.998104	228.0	339.7429
0.10222715	228.0	344.99997
-59.796757	228.0	339.77838
-117.879524	228.0	324.23666
-172.38196	228.0	298.8469
-221.64862	228.0	264.38022
-264.1831	228.0	221.88351
-298.69354	228.0	172.64752
-324.13174	228.0	118.1677
-339.7251	228.0	60.098766
-344.99994	228.0	0.20445427
-339.79608	228.0	-59.69607
-324.27158	228.0	-117.78344
-298.89798	228.0	-172.29338
-264.4459	228.0	-221.57022
-221.96173	228.0	-264.11737
-172.736	228.0	-298.6424
-118.2637	228.0	-324.09674
-60.19939	228.0	-339.70728
-0.3066403	228.0	-344.99985
59.59542	228.0	-339.81375
117.687386	228.0	-324.30646
172.20483	228.0	-298.94897
221.4919	228.0	-264.5115
264.05157	228.0	-222.04002
298.5912	228.0	-172.8245
324.06168	228.0	-118.359764
339.68942	228.0	-60.300087
335.0	256.0	0.0
329.9125	256.0	58.161278
314.80457	256.0	114.55602
290.13507	256.0	167.47134
256.65323	256.0	215.30005
215.37608	256.0	256.58945
167.55728	256.0	290.08542
114.649284	256.0	314.7706
58.25903	256.0	329.89526
0.09926404	256.0	334.99997
-58.063515	256.0	329.92975
-114.46273	256.0	314.8385
-167.38539	256.0	290.18466
-215.22401	256.0	256.717
-256.52563	256.0	215.4521
-290.03577	256.0	167.64325
-314.73663	256.0	114.74255
-329.878	256.0	58.356773
-334.99994	256.0	0.19852807
-329.94693	256.0	-57.96575
-314.8724	256.0	-114.36943
-290.23425	256.0	-167.29936
-256.7808	256.0	-215.1479
-215.52806	256.0	-256.4618
-167.72914	256.0	-289.9861
-114.83577	256.0	-314.70264
-58.45448	256.0	-329.8607
-0.29775217	256.0	-334.99985
57.86802	256.0	-329.96408
114.27616	256.0	-314.90628
167.2134	256.0	-290.28378
215.07184	256.0	-256.8445
256.3979	256.0	-215.60408
289.93637	256.0	-167.8151
314.66858	256.0	-114.92905
329.84335	256.0	-58.552258
300.0	288.0	0.0
295.44403	288.0	52.084724
281.91455	288.0	102.58749
259.82245	288.0	149.97433
229.83873	288.0	192.80602
192.87411	288.0	229.78159
150.0513	288.0	259.77798
102.671	288.0	281.88412
52.172264	288.0	295.4286
0.088893175	288.0	299.99997
-51.997177	288.0	295.45947
-102.50394	288.0	281.94492
-149.89735	288.0	259.86685
-192.73793	288.0	229.89584
-229.72444	288.0	192.94218
-259.73352	288.0	150.12828
-281.8537	288.0	102.754524
-295.41312	288.0	52.2598
-299.99994	288.0	0.17778634
-295.47485	288.0	-51.909626
-281.97528	288.0	-102.42039
-259.9113	288.0	-149.82033
-229.95294	288.0	-192.66975
-193.01021	288.0	-229.66728
-150.2052	288.0	-259.68906
-102.838005	288.0	-281.82327
-52.347298	288.0	-295.39764
-0.26664373	288.0	-299.99988
51.822105	288.0	-295.49023
102.33686	288.0	-282.0056
149.74333	288.0	-259.95563
192.60165	288.0	-230.01001
229.61006	288.0	-193.07828
259.6445	288.0	-150.28217
281.79276	288.0	-102.92154
295.38208	288.0	-52.434856
285.0	283.0	0.0
280.67184	283.0	49.48049
267.81882	283.0	97.458115
246.83131	283.0	142.47562
218.34679	283.0	183.16571
183.23041	283.0	218.29251
142.54874	283.0	246.7891
97.53745	283.0	267.78992
49.563652	283.0	280.65717
0.08444852	283.0	284.99997
-49.39732	283.0	280.6865
-97.37874	283.0	267.8477
-142.4025	283.0	246.87352
-183.10103	283.0	218.40105
-218.23822	283.0	183.29507
-246.74684	283.0	142.62187
-267.76102	283.0	97.6168
-280.64246	283.0	49.64681
-284.99994	283.0	0.16889702
-280.7011	283.0	-49.314144
-267.87653	283.0	-97.29936
-246.91571	283.0	-142.32932
-218.4553	283.0	-183.03627
-183.3597	283.0	-218.18391
-142.69495	283.0	-246.70459
-97.696106	283.0	-267.7321
-49.72993	283.0	-280.62775
-0.25331154	283.0	-284.99988
49.231003	283.0	-280.7157
97.22002	283.0	-267.90533
142.25618	283.0	-246.95786
182.97157	283.0	-218.5095
218.12955	283.0	-183.42436
246.66228	283.0	-142.76807
267.70312	283.0	-97.77546
280.61298	283.0	-49.813114
285.0	295.0	0.0
280.67184	295.0	49.48049
267.81882	295.0	97.458115
246.83131	295.0	142.47562
218.34679	295.0	183.16571
183.23041	295.0	218.29251
142.54874	295.0	246.7891
97.53745	295.0	267.78992
49.563652	295.0	280.65717
0.08444852	295.0	284.99997
-49.39732	295.0	280.6865
-97.37874	295.0	267.8477
-142.4025	295.0	246.87352
-183.10103	295.0	218.40105
-218.23822	295.0	183.29507
-246.74684	295.0	142.62187
-267.76102	295.0	97.6168
-280.64246	295.0	49.64681
-284.99994	295.0	0.16889702
-280.7011	295.0	-49.314144
-267.87653	295.0	-97.29936
-246.91571	295.0	-142.32932
-218.4553	295.0	-183.03627
-183.3597	295.0	-218.18391
-142.69495	295.0	-246.70459
-97.696106	295.0	-267.7321
-49.72993	295.0	-280.62775
-0.25331154	295.0	-284.99988
49.231003	295.0	-280.7157
97.22002	295.0	-267.90533
142.25618	295.0	-246.95786
182.97157	295.0	-218.5095
218.12955	295.0	-183.42436
246.66228	295.0	-142.76807
267.70312	295.0	-97.77546
280.61298	295.0	-49.813114
270.0	312.0	0.0
265.89963	312.0	46.876255
253.72308	312.0	92.328735
233.8402	312.0	134.97691
206.85484	312.0	173.52542
173.5867	312.0	206.80344
135.04617	312.0	233.80019
92.4039	312.0	253.69571
46.955036	312.0	265.88574
0.08000386	312.0	269.99997
-46.797462	312.0	265.9135
-92.25354	312.0	253.75043
-134.90762	312.0	233.88017
-173.46413	312.0	206.90625
-206.752	312.0	173.64796
-233.76016	312.0	135.11545
-253.66832	312.0	92.47907
-265.8718	312.0	47.033817
-269.99994	312.0	0.1600077
-265.92737	312.0	-46.718666
-253.77776	312.0	-92.178345
-233.92015	312.0	-134.83829
-206.95766	312.0	-173.40279
-173.70918	312.0	-206.70055
-135.1847	312.0	-233.72014
-92.55421	312.0	-253.64093
-47.112568	312.0	-265.85788
-0.23997936	312.0	-269.99988
46.639896	312.0	-265.9412
92.10317	312.0	-253.80505
134.76901	312.0	-233.96007
173.34149	312.0	-207.009
206.64905	312.0	-173.77045
233.68005	312.0	-135.25395
253.61348	312.0	-92.62938
265.84387	312.0	-47.191372
291.0	323.0	0.0
286.58072	323.0	50.522182
273.45712	323.0	99.50986
252.02777	323.0	145.47511
222.94356	323.0	187.02184
187.08789	323.0	222.88814
145.54976	323.0	251.98465
99.59087	323.0	273.4276
50.607098	323.0	286.56573
0.08622638	323.0	290.99997
-50.437263	323.0	286.59567
-99.42882	323.0	273.48657
-145.40044	323.0	252.07085
-186.95578	323.0	222.99896
-222.8327	323.0	187.15392
-251.94151	323.0	145.62444
-273.39807	323.0	99.67189
-286.55072	323.0	50.692005
-290.99994	323.0	0.17245275
-286.61063	323.0	-50.352337
-273.51602	323.0	-99.34777
-252.11394	323.0	-145.32571
-223.05437	323.0	-186.88966
-187.2199	323.0	-222.77725
-145.69905	323.0	-251.89838
-99.75286	323.0	-273.36856
-50.77688	323.0	-286.5357
-0.2586444	323.0	-290.99988
50.267445	323.0	-286.62552
99.266754	323.0	-273.54544
145.25104	323.0	-252.15697
186.82361	323.0	-223.10971
222.72176	323.0	-187.28593
251.85516	323.0	-145.7737
273.33896	323.0	-99.83389
286.52063	323.0	-50.861813
291.0	336.0	0.0
286.58072	336.0	50.522182
273.45712	336.0	99.50986
252.02777	336.0	145.47511
222.94356	336.0	187.02184
187.08789	336.0	222.88814
145.54976	336.0	251.98465
99.59087	336.0	273.4276
50.607098	336.0	286.56573
0.08622638	336.0	290.99997
-50.437263	336.0	286.59567
-99.42882	336.0	273.48657
-145.40044	336.0	252.07085
-186.95578	336.0	222.99896
-222.8327	336.0	187.15392
-251.94151	336.0	145.62444
-273.39807	336.0	99.67189
-286.55072	336.0	50.692005
-290.99994	336.0	0.17245275
-286.61063	336.0	-50.352337
-273.51602	336.0	-99.34777
-252.11394	336.0	-145.32571
-223.05437	336.0	-186.88966
-187.2199	336.0	-222.77725
-145.69905	336.0	-251.89838
-99.75286	336.0	-273.36856
-50.77688	336.0	-286.5357
-0.2586444	336.0	-290.99988
50.267445	336.0	-286.62552
99.266754	336.0	-273.54544
145.25104	336.0	-252.15697
186.82361	336.0	-223.10971
222.72176	336.0	-187.28593
251.85516	336.0	-145.7737
273.33896	336.0	-99.83389
286.52063	336.0	-50.861813
280.0	344.0	0.0
275.74777	344.0	48.61241
263.12024	344.0	95.74832
242.50095	344.0	139.97604
214.51614	344.0	179.95229
180.01584	344.0	214.46281
140.04788	344.0	242.45946
95.82626	344.0	263.09186
48.694115	344.0	275.73337
0.08296696	344.0	279.99997
-48.5307	344.0	275.76218
-95.67034	344.0	263.1486
-139.9042	344.0	242.5424
-179.88873	344.0	214.56944
-214.40948	344.0	180.07938
-242.41795	344.0	140.11974
-263.06345	344.0	95.90422
-275.7189	344.0	48.77581
-279.99994	344.0	0.1659339
-275.77655	344.0	-48.448986
-263.17694	344.0	-95.59236
-242.58386	344.0	-139.8323
-214.62276	344.0	-179.8251
-180.14285	344.0	-214.35612
-140.19153	344.0	-242.37643
-95.98214	344.0	-263.03503
-48.857475	344.0	-275.70447
-0.24886748	344.0	-279.99988
48.3673	344.0	-275.79086
95.514404	344.0	-263.20523
139.76045	344.0	-242.62526
179.76154	344.0	-214.67601
214.30272	344.0	-180.20639
242.33487	344.0	-140.26335
263.00656	344.0	-96.060104
275.68994	344.0	-48.9392
271.0	363.0	0.0
266.88446	363.0	47.04987
254.66281	363.0	92.67069
234.70627	363.0	135.47682
207.62099	363.0	174.1681
174.22961	363.0	207.56937
135.54634	363.0	234.66612
92.74614	363.0	254.63533
47.128944	363.0	266.8705
0.08030017	363.0	270.99997
-46.970783	363.0	266.89838
-92.59522	363.0	254.69025
-135.40729	363.0	234.7464
-174.1066	363.0	207.67258
-207.51775	363.0	174.2911
-234.62595	363.0	135.61588
-254.60783	363.0	92.82159
-266.8565	363.0	47.20802
-270.99994	363.0	0.16060032
-266.9123	363.0	-46.891697
-254.71768	363.0	-92.519745
-234.78651	363.0	-135.33769
-207.72417	363.0	-174.04501
-174.35255	363.0	-207.46611
-135.68536	363.0	-234.58577
-92.896996	363.0	-254.58034
-47.287056	363.0	-266.84253
-0.24086817	363.0	-270.99988
46.812637	363.0	-266.92618
92.4443	363.0	-254.74507
135.26814	363.0	-234.8266
173.98349	363.0	-207.77571
207.41441	363.0	-174.41405
234.54553	363.0	-135.7549
254.55278	363.0	-92.97246
266.8285	363.0	-47.366154
263.0	387.0	0.0
259.00595	387.0	45.660942
247.14508	387.0	89.93503
227.77768	387.0	131.47751
201.49194	387.0	169.02661
169.0863	387.0	201.44186
131.54497	387.0	227.73871
90.00825	387.0	247.11842
45.737686	387.0	258.9924
0.07792968	387.0	262.99997
-45.584194	387.0	259.01947
-89.861786	387.0	247.17172
-131.41002	387.0	227.8166
-168.96692	387.0	201.54202
-201.39175	387.0	169.14598
-227.69972	387.0	131.61246
-247.09174	387.0	90.08147
-258.97882	387.0	45.814423
-262.99994	387.0	0.15585935
-259.03296	387.0	-45.50744
-247.19833	387.0	-89.788536
-227.85555	387.0	-131.34248
-201.59209	387.0	-168.90715
-169.20561	387.0	-201.34164
-131.6799	387.0	-227.66074
-90.15465	387.0	-247.06506
-45.89113	387.0	-258.96527
-0.23375766	387.0	-262.99988
45.430714	387.0	-259.04642
89.71532	387.0	-247.22491
131.275	387.0	-227.89444
168.84744	387.0	-201.6421
201.29149	387.0	-169.26529
227.62167	387.0	-131.74736
247.03831	387.0	-90.22788
258.95163	387.0	-45.96789
249.0	408.0	0.0
245.21855	408.0	43.230324
233.98907	408.0	85.14761
215.65262	408.0	124.4787
190.76614	408.0	160.02899
160.08551	408.0	190.71872
124.54258	408.0	215.61572
85.21693	408.0	233.96382
43.30298	408.0	245.20573
0.073781334	408.0	248.99998
-43.157658	408.0	245.23135
-85.07826	408.0	234.01428
-124.41481	408.0	215.6895
-159.97247	408.0	190.81354
-190.6713	408.0	160.14201
-215.57881	408.0	124.606476
-233.93857	408.0	85.286255
-245.19289	408.0	43.375633
-248.99995	408.0	0.14756265
-245.24414	408.0	-43.08499
-234.03949	408.0	-85.00892
-215.72636	408.0	-124.350876
-190.86095	408.0	-159.91591
-160.19847	408.0	-190.62384
-124.67032	408.0	-215.5419
-85.355545	408.0	-233.9133
-43.448257	408.0	-245.18004
-0.2213143	408.0	-248.9999
43.01235	408.0	-245.25688
84.93959	408.0	-234.06467
124.28697	408.0	-215.76318
159.85938	408.0	-190.90831
190.57634	408.0	-160.25497
215.50494	408.0	-124.7342
233.88799	408.0	-85.42487
245.16714	408.0	-43.52093
218.0	440.0	0.0
214.68933	440.0	37.848236
204.8579	440.0	74.546906
188.8043	440.0	108.98135
167.01614	440.0	140.10571
140.15518	440.0	166.97462
109.03728	440.0	188.772
74.6076	440.0	204.8358
37.911846	440.0	214.67812
0.06459571	440.0	217.99998
-37.78462	440.0	214.70055
-74.48619	440.0	204.87997
-108.925415	440.0	188.83658
-140.05623	440.0	167.05765
-166.93309	440.0	140.20465
-188.73969	440.0	109.093216
-204.81369	440.0	74.66829
-214.66687	440.0	37.975452
-217.99995	440.0	0.1291914
-214.71173	440.0	-37.720997
-204.90204	440.0	-74.425476
-188.86887	440.0	-108.86944
-167.09914	440.0	-140.0067
-140.25409	440.0	-166.89156
-109.14912	440.0	-188.70737
-74.72895	440.0	-204.79156
-38.039036	440.0	-214.65561
-0.19376111	440.0	-217.99991
37.6574	440.0	-214.7229
74.364784	440.0	-204.92407
108.81349	440.0	-188.9011
139.9572	440.0	-167.14061
166.84998	440.0	-140.30354
188.675	440.0	-109.20504
204.7694	440.0	-74.78965
214.64432	440.0	-38.10266
190.0	460.0	0.0
187.11456	460.0	32.98699
178.54588	460.0	64.97208
164.55421	460.0	94.98375
145.56453	460.0	122.11048
122.1536	460.0	145.52834
95.03249	460.0	164.52606
65.02496	460.0	178.52661
33.042435	460.0	187.10478
0.05629901	460.0	189.99998
-32.931545	460.0	187.12433
-64.91916	460.0	178.56512
-94.935	460.0	164.58234
-122.06735	460.0	145.6007
-145.49214	460.0	122.19672
-164.4979	460.0	95.081245
-178.50734	460.0	65.077866
-187.09497	460.0	33.097874
-189.99997	460.0	0.11259801
-187.13408	460.0	-32.8761
-178.58435	460.0	-64.86624
-164.61047	460.0	-94.88621
-145.63687	460.0	-122.024185
-122.2398	460.0	-145.45595
-95.12997	460.0	-164.46973
-65.13074	460.0	-178.48807
-33.153286	460.0	-187.08517
-0.16887435	460.0	-189.99992
32.820667	460.0	-187.14381
64.81335	460.0	-178.60356
94.83745	460.0	-164.63857
121.98105	460.0	-145.673
145.41971	460.0	-122.28291
164.44151	460.0	-95.1787
178.46875	460.0	-65.18364
187.07533	460.0	-33.208744
148.0	485.0	0.0
145.7524	485.0	25.695131
139.07784	485.0	50.609825
128.17908	485.0	73.98734
113.3871	485.0	95.11764
95.15123	485.0	113.35892
74.02531	485.0	128.15714
50.651028	485.0	139.06284
25.738317	485.0	145.74478
0.043853965	485.0	147.99998
-25.651941	485.0	145.76001
-50.568607	485.0	139.09283
-73.94936	485.0	128.20099
-95.084045	485.0	113.415276
-113.33073	485.0	95.184814
-128.13521	485.0	74.063286
-139.04782	485.0	50.69223
-145.73714	485.0	25.7815
-147.99997	485.0	0.08770792
-145.7676	485.0	-25.60875
-139.1078	485.0	-50.52739
-128.2229	485.0	-73.91136
-113.44346	485.0	-95.050415
-95.21837	485.0	-113.30252
-74.101234	485.0	-128.11327
-50.733414	485.0	-139.0328
-25.824667	485.0	-145.72949
-0.13154423	485.0	-147.99994
25.565573	485.0	-145.77518
50.486183	485.0	-139.12277
73.87338	485.0	-128.24478
95.016815	485.0	-113.4716
113.27429	485.0	-95.25195
128.0913	485.0	-74.139206
139.01776	485.0	-50.774624
145.72183	485.0	-25.867863
110.0	505.0	0.0
108.32948	505.0	19.097733
103.36867	505.0	37.61541
95.26823	505.0	54.990593
84.2742	505.0	70.69554
70.720505	505.0	84.25325
55.01881	505.0	95.25193
37.646034	505.0	103.35751
19.12983	505.0	108.32382
0.032594163	505.0	109.99999
-19.065632	505.0	108.33514
-37.584778	505.0	103.37981
-54.962364	505.0	95.284515
-70.67057	505.0	84.29514
-84.23229	505.0	70.74547
-95.23563	505.0	55.047035
-103.34635	505.0	37.67666
-108.318146	505.0	19.161926
-109.99998	505.0	0.06518832
-108.34078	505.0	-19.03353
-103.39094	505.0	-37.554142
-95.300804	505.0	-54.93412
-84.31608	505.0	-70.64558
-70.77041	505.0	-84.211334
-55.07524	505.0	-95.219315
-37.707268	505.0	-103.3352
-19.194008	505.0	-108.31246
-0.097769365	505.0	-109.999954
19.001438	505.0	-108.34641
37.523514	505.0	-103.40206
54.90589	505.0	-95.31707
70.620605	505.0	-84.337006
84.19035	505.0	-70.79537
95.20299	505.0	-55.103462
103.32401	505.0	-37.737896
108.30677	505.0	-19.226114
83.0	510.0	0.0
81.73952	510.0	14.410108
77.99636	510.0	28.382538
71.88421	510.0	41.4929
63.588715	510.0	53.343
53.361835	510.0	63.572906
41.514194	510.0	71.87191
28.405643	510.0	77.987946
14.434326	510.0	81.735245
0.024593778	510.0	82.99999
-14.385886	510.0	81.74379
-28.359423	510.0	78.00476
-41.471603	510.0	71.8965
-53.324158	510.0	63.604515
-63.557095	510.0	53.380672
-71.859604	510.0	41.535492
-77.97952	510.0	28.428751
-81.730965	510.0	14.458544
-82.999985	510.0	0.049187552
-81.74805	510.0	-14.361664
-78.01316	510.0	-28.336306
-71.90878	510.0	-41.45029
-63.620316	510.0	-53.3053
-53.39949	510.0	-63.54128
-41.556774	510.0	-71.847305
-28.451847	510.0	-77.9711
-14.482752	510.0	-81.72668
-0.07377143	510.0	-82.99996
14.337449	510.0	-81.7523
28.313198	510.0	-78.02155
41.42899	510.0	-71.92106
53.286457	510.0	-63.6361
63.525448	510.0	-53.418324
71.83498	510.0	-41.578068
77.96266	510.0	-28.474958
81.72238	510.0	-14.506977
89.0	520.0	0.0
87.6484	520.0	15.451802
83.63465	520.0	30.434288
77.08066	520.0	44.492386
68.185486	520.0	57.19912
57.21932	520.0	68.16854
44.51522	520.0	77.06747
30.459063	520.0	83.625626
15.477772	520.0	87.64382
0.026371641	520.0	88.99999
-15.42583	520.0	87.65298
-30.4095	520.0	83.64366
-44.46955	520.0	77.093834
-57.178917	520.0	68.20243
-68.15159	520.0	57.239513
-77.054276	520.0	44.538055
-83.61659	520.0	30.483843
-87.63923	520.0	15.50374
-88.999985	520.0	0.05274328
-87.65754	520.0	-15.399856
-83.65267	520.0	-30.384714
-77.10701	520.0	-44.446697
-68.219376	520.0	-57.158695
-57.259693	520.0	-68.13463
-44.56088	520.0	-77.041084
-30.508608	520.0	-83.60757
-15.529698	520.0	-87.63463
-0.079104304	520.0	-88.99996
15.373892	520.0	-87.6621
30.359936	520.0	-83.66167
44.42386	520.0	-77.12017
57.13849	520.0	-68.236305
68.11765	520.0	-57.27989
77.02787	520.0	-44.58371
83.59852	520.0	-30.53339
87.63002	520.0	-15.555675
83.0	527.0	0.0
81.73952	527.0	14.410108
77.99636	527.0	28.382538
71.88421	527.0	41.4929
63.588715	527.0	53.343
53.361835	527.0	63.572906
41.514194	527.0	71.87191
28.405643	527.0	77.987946
14.434326	527.0	81.735245
0.024593778	527.0	82.99999
-14.385886	527.0	81.74379
-28.359423	527.0	78.00476
-41.471603	527.0	71.8965
-53.324158	527.0	63.604515
-63.557095	527.0	53.380672
-71.859604	527.0	41.535492
-77.97952	527.0	28.428751
-81.730965	527.0	14.458544
-82.999985	527.0	0.049187552
-81.74805	527.0	-14.361664
-78.01316	527.0	-28.336306
-71.90878	527.0	-41.45029
-63.620316	527.0	-53.3053
-53.39949	527.0	-63.54128
-41.556774	527.0	-71.847305
-28.451847	527.0	-77.9711
-14.482752	527.0	-81.72668
-0.07377143	527.0	-82.99996
14.337449	527.0	-81.7523
28.313198	527.0	-78.02155
41.42899	527.0	-71.92106
53.286457	527.0	-63.6361
63.525448	527.0	-53.418324
71.83498	527.0	-41.578068
77.96266	527.0	-28.474958
81.72238	527.0	-14.506977
111.0	544.0	0.0
109.31429	544.0	19.271349
104.30838	544.0	37.95737
96.1343	544.0	55.490505
85.04033	544.0	71.33823
71.36342	544.0	85.01919
55.518982	544.0	96.11786
37.98827	544.0	104.29713
19.303738	544.0	109.308586
0.032890473	544.0	110.99999
-19.238956	544.0	109.32
-37.926456	544.0	104.319626
-55.462025	544.0	96.150734
-71.313034	544.0	85.06146
-84.99805	544.0	71.38861
-96.1014	544.0	55.547462
-104.285866	544.0	38.019173
-109.30286	544.0	19.336126
-110.99998	544.0	0.065780945
-109.3257	544.0	-19.206562
-104.33086	544.0	-37.895542
-96.167175	544.0	-55.43352
-85.08259	544.0	-71.28781
-71.41377	544.0	-84.97689
-55.575928	544.0	-96.084946
-38.05006	544.0	-104.274605
-19.3685	544.0	-109.29713
-0.098658174	544.0	-110.999954
19.17418	544.0	-109.33138
37.86464	544.0	-104.34208
55.405037	544.0	-96.183586
71.26261	544.0	-85.10371
84.95572	544.0	-71.438965
96.06847	544.0	-55.6044
104.26332	544.0	-38.080967
109.291374	544.0	-19.400898
131.0	563.0	0.0
129.01056	563.0	22.743664
123.102684	563.0	44.796535
113.455795	563.0	65.48879
100.36291	563.0	84.19196
84.221695	563.0	100.33796
65.5224	563.0	113.436386
44.833004	563.0	123.0894
22.781889	563.0	129.00383
0.038816687	563.0	130.99998
-22.705435	563.0	129.0173
-44.76005	563.0	123.11595
-65.45518	563.0	113.4752
-84.162224	563.0	100.38785
-100.313	563.0	84.25142
-113.41697	563.0	65.556015
-123.07611	563.0	44.869476
-128.99706	563.0	22.820112
-130.99997	563.0	0.077633366
-129.02402	563.0	-22.667204
-123.12921	563.0	-44.723568
-113.49459	563.0	-65.42154
-100.41279	563.0	-84.13246
-84.28112	563.0	-100.28804
-65.58961	563.0	-113.39755
-44.90593	563.0	-123.06282
-22.85832	563.0	-128.9903
-0.116434425	563.0	-130.99994
22.628986	563.0	-129.03073
44.687096	563.0	-123.14245
65.387924	563.0	-113.51396
84.10272	563.0	-100.437706
100.263054	563.0	-84.31085
113.3781	563.0	-65.623215
123.0495	563.0	-44.942406
128.98352	563.0	-22.896555
144.0	577.0	0.0
141.81314	577.0	25.000668
135.31898	577.0	49.241993
124.71477	577.0	71.987686
110.322586	577.0	92.54689
92.579575	577.0	110.295166
72.02463	577.0	124.693436
49.28208	577.0	135.30438
25.042686	577.0	141.80573
0.042668723	577.0	143.99998
-24.958645	577.0	141.82054
-49.20189	577.0	135.33356
-71.95073	577.0	124.73609
-92.514206	577.0	110.35
-110.26773	577.0	92.61225
-124.67209	577.0	72.06158
-135.28978	577.0	49.32217
-141.7983	577.0	25.084703
-143.99997	577.0	0.08533744
-141.82794	577.0	-24.91662
-135.34814	577.0	-49.161785
-124.757416	577.0	-71.91376
-110.37742	577.0	-92.48148
-92.6449	577.0	-110.240295
-72.098495	577.0	-124.65074
-49.362244	577.0	-135.27516
-25.126701	577.0	-141.79086
-0.127989	577.0	-143.99994
24.87461	577.0	-141.83531
49.121693	577.0	-135.3627
71.8768	577.0	-124.77871
92.44879	577.0	-110.4048
110.21283	577.0	-92.677574
124.629364	577.0	-72.13544
135.26053	577.0	-49.402336
141.7834	577.0	-25.168732
156.0	600.0	0.0
153.6309	600.0	27.084057
146.59557	600.0	53.345493
135.10767	600.0	77.98666
119.516136	600.0	100.25913
100.29454	600.0	119.48643
78.02668	600.0	135.08455
53.38892	600.0	146.57974
27.129578	600.0	153.62288
0.04622445	600.0	155.99998
-27.038532	600.0	153.63892
-53.302048	600.0	146.61136
-77.946625	600.0	135.13077
-100.223724	600.0	119.54584
-119.45671	600.0	100.32993
-135.06143	600.0	78.0667
-146.56392	600.0	53.432354
-153.61482	600.0	27.175095
-155.99997	600.0	0.09244889
-153.64693	600.0	-26.993006
-146.62715	600.0	-53.2586
-135.15387	600.0	-77.90657
-119.57553	600.0	-100.18828
-100.3653	600.0	-119.42699
-78.106705	600.0	-135.0383
-53.47576	600.0	-146.5481
-27.220594	600.0	-153.60677
-0.13865474	600.0	-155.99994
26.947495	600.0	-153.65492
53.215168	600.0	-146.64291
77.86654	600.0	-135.17693
100.152855	600.0	-119.6052
119.39723	600.0	-100.4007
135.01514	600.0	-78.14673
146.53223	600.0	-53.5192
153.5987	600.0	-27.266127
162.0	618.0	0.0
159.53978	618.0	28.125751
152.23386	618.0	55.397243
140.30412	618.0	80.986145
124.11291	618.0	104.11525
104.152016	618.0	124.08206
81.0277	618.0	140.2801
55.44234	618.0	152.21742
28.173023	618.0	159.53145
0.048002314	618.0	161.99998
-28.078476	618.0	159.54811
-55.352123	618.0	152.25026
-80.94457	618.0	140.32811
-104.078476	618.0	124.14375
-124.0512	618.0	104.18878
-140.2561	618.0	81.069275
-152.20099	618.0	55.487442
-159.52309	618.0	28.220291
-161.99997	618.0	0.09600462
-159.55643	618.0	-28.031199
-152.26666	618.0	-55.307007
-140.35208	618.0	-80.90298
-124.17459	618.0	-104.04167
-104.22551	618.0	-124.02033
-81.11081	618.0	-140.23209
-55.53252	618.0	-152.18456
-28.26754	618.0	-159.51472
-0.14398761	618.0	-161.99994
27.983938	618.0	-159.56473
55.261906	618.0	-152.28304
80.861404	618.0	-140.37604
104.00489	618.0	-124.20541
123.98943	618.0	-104.26227
140.20804	618.0	-81.152374
152.16809	618.0	-55.57763
159.50633	618.0	-28.314823
70.0	618.0	0.0
68.93694	618.0	12.153103
65.78006	618.0	23.93708
60.625237	618.0	34.99401
53.629036	618.0	44.98807
45.00396	618.0	53.615704
35.01197	618.0	60.614864
23.956566	618.0	65.772964
12.173529	618.0	68.93334
0.02074174	618.0	69.99999
-12.132675	618.0	68.940544
-23.917585	618.0	65.78715
-34.97605	618.0	60.6356
-44.972183	618.0	53.64236
-53.60237	618.0	45.019844
-60.60449	618.0	35.029934
-65.76586	618.0	23.976055
-68.929726	618.0	12.193953
-69.999985	618.0	0.041483477
-68.94414	618.0	-12.1122465
-65.794235	618.0	-23.89809
-60.645966	618.0	-34.958076
-53.65569	618.0	-44.956276
-45.035713	618.0	-53.58903
-35.047882	618.0	-60.59411
-23.995535	618.0	-65.75876
-12.214369	618.0	-68.92612
-0.06221687	618.0	-69.99997
12.091825	618.0	-68.947716
23.878601	618.0	-65.80131
34.940113	618.0	-60.656315
44.940384	618.0	-53.669003
53.57568	618.0	-45.051598
60.583717	618.0	-35.065838
65.75164	618.0	-24.015026
68.922485	618.0	-12.2348
72.0	649.0	0.0
70.90657	649.0	12.500334
67.65949	649.0	24.620996
62.357384	649.0	35.993843
55.161293	649.0	46.273445
46.289787	649.0	55.147583
36.012314	649.0	62.346718
24.64104	649.0	67.65219
12.521343	649.0	70.90286
0.021334361	649.0	71.99999
-12.479322	649.0	70.91027
-24.600945	649.0	67.66678
-35.975365	649.0	62.368046
-46.257103	649.0	55.175
-55.133865	649.0	46.306126
-62.336044	649.0	36.03079
-67.64489	649.0	24.661085
-70.89915	649.0	12.542352
-71.999985	649.0	0.04266872
-70.91397	649.0	-12.45831
-67.67407	649.0	-24.580893
-62.378708	649.0	-35.95688
-55.18871	649.0	-46.24074
-46.32245	649.0	-55.120148
-36.049248	649.0	-62.32537
-24.681122	649.0	-67.63758
-12.563351	649.0	-70.89543
-0.0639945	649.0	-71.99997
12.437305	649.0	-70.917656
24.560846	649.0	-67.68135
35.9384	649.0	-62.389355
46.224396	649.0	-55.2024
55.106415	649.0	-46.338787
62.314682	649.0	-36.06772
67.630264	649.0	-24.701168
70.8917	649.0	-12.584366
72.0	671.0	0.0
70.90657	671.0	12.500334
67.65949	671.0	24.620996
62.357384	671.0	35.993843
55.161293	671.0	46.273445
46.289787	671.0	55.147583
36.012314	671.0	62.346718
24.64104	671.0	67.65219
12.521343	671.0	70.90286
0.021334361	671.0	71.99999
-12.479322	671.0	70.91027
-24.600945	671.0	67.66678
-35.975365	671.0	62.368046
-46.257103	671.0	55.175
-55.133865	671.0	46.306126
-62.336044	671.0	36.03079
-67.64489	671.0	24.661085
-70.89915	671.0	12.542352
-71.999985	671.0	0.04266872
-70.91397	671.0	-12.45831
-67.67407	671.0	-24.580893
-62.378708	671.0	-35.95688
-55.18871	671.0	-46.24074
-46.32245	671.0	-55.120148
-36.049248	671.0	-62.32537
-24.681122	671.0	-67.63758
-12.563351	671.0	-70.89543
-0.0639945	671.0	-71.99997
12.437305	671.0	-70.917656
24.560846	671.0	-67.68135
35.9384	671.0	-62.389355
46.224396	671.0	-55.2024
55.106415	671.0	-46.338787
62.314682	671.0	-36.06772
67.630264	671.0	-24.701168
70.8917	671.0	-12.584366
76.0	688.0	0.0
74.845825	688.0	13.1947975
71.41835	688.0	25.98883
65.821686	688.0	37.9935
58.22581	688.0	48.844193
48.861443	688.0	58.211338
38.012997	688.0	65.810425
26.009987	688.0	71.410645
13.216973	688.0	74.84191
0.022519603	688.0	75.99999
-13.172619	688.0	74.84973
-25.967663	688.0	71.42605
-37.974	688.0	65.83294
-48.826942	688.0	58.24028
-58.196857	688.0	48.878685
-65.79916	688.0	38.032497
-71.40294	688.0	26.031147
-74.83799	688.0	13.239149
-75.999985	688.0	0.045039203
-74.85363	688.0	-13.150439
-71.43374	688.0	-25.946497
-65.84419	688.0	-37.954483
-58.254745	688.0	-48.809673
-48.89592	688.0	-58.182377
-38.051987	688.0	-65.78789
-26.052294	688.0	-71.395226
-13.261315	688.0	-74.83407
-0.06754974	688.0	-75.99997
13.128267	688.0	-74.85752
25.925339	688.0	-71.44142
37.93498	688.0	-65.85543
48.79242	688.0	-58.269203
58.16788	688.0	-48.913162
65.7766	688.0	-38.071484
71.3875	688.0	-26.073456
74.83013	688.0	-13.283497
79.0	708.0	0.0
77.80026	708.0	13.715645
74.237495	708.0	27.014704
68.41991	708.0	39.493244
60.524197	708.0	50.77225
50.790184	708.0	60.50915
39.513508	708.0	68.4082
27.036697	708.0	74.229485
13.738696	708.0	77.796196
0.023408536	708.0	78.99999
-13.692591	708.0	77.80433
-26.992702	708.0	74.2455
-39.472973	708.0	68.4316
-50.754322	708.0	60.539238
-60.494102	708.0	50.80811
-68.39649	708.0	39.53378
-74.22147	708.0	27.058691
-77.79212	708.0	13.761747
-78.999985	708.0	0.046817068
-77.80838	708.0	-13.669535
-74.253494	708.0	-26.970701
-68.443306	708.0	-39.452686
-60.554276	708.0	-50.73637
-50.82602	708.0	-60.47905
-39.55404	708.0	-68.38478
-27.080675	708.0	-74.213455
-13.784788	708.0	-77.78804
-0.07021618	708.0	-78.99997
13.646488	708.0	-77.81242
26.948706	708.0	-74.261475
39.43241	708.0	-68.45499
50.718433	708.0	-60.5693
60.46398	708.0	-50.84395
68.373055	708.0	-39.574303
74.20542	708.0	-27.10267
77.78395	708.0	-13.807846
86.0	730.0	0.0
84.693954	730.0	14.930955
80.815506	730.0	29.408413
74.48243	730.0	42.992645
65.8871	730.0	55.271057
55.290577	730.0	65.87072
43.014706	730.0	74.46969
29.432354	730.0	80.806786
14.956049	730.0	84.68953
0.02548271	730.0	85.99999
-14.905858	730.0	84.69838
-29.38446	730.0	80.82421
-42.970577	730.0	74.49516
-55.251537	730.0	65.90347
-65.85434	730.0	55.310093
-74.45694	730.0	43.036774
-80.79806	730.0	29.456297
-84.6851	730.0	14.981142
-85.999985	730.0	0.050965413
-84.7028	730.0	-14.88076
-80.83292	730.0	-29.36051
-74.5079	730.0	-42.948494
-65.919846	730.0	-55.232
-55.329594	730.0	-65.83795
-43.058826	730.0	-74.44419
-29.480228	730.0	-80.78934
-15.006225	730.0	-84.68066
-0.07643787	730.0	-85.99996
14.855671	730.0	-84.7072
29.336567	730.0	-80.841606
42.926422	730.0	-74.520615
55.212475	730.0	-65.9362
65.82155	730.0	-55.349106
74.43143	730.0	-43.080887
80.78059	730.0	-29.504173
84.6762	730.0	-15.031325
93.0	750.0	0.0
91.587654	750.0	16.146265
87.39351	750.0	31.80212
80.54496	750.0	46.492046
71.25001	750.0	59.769867
59.790974	750.0	71.23229
46.515903	750.0	80.53117
31.82801	750.0	87.38408
16.173403	750.0	91.58287
0.027556883	750.0	92.99999
-16.119125	750.0	91.59244
-31.77622	750.0	87.40292
-46.46818	750.0	80.55872
-59.748756	750.0	71.26771
-71.21458	750.0	59.812077
-80.51739	750.0	46.53977
-87.37464	750.0	31.853903
-91.578064	750.0	16.200537
-92.999985	750.0	0.055113763
-91.597206	750.0	-16.091984
-87.41234	750.0	-31.750319
-80.572495	750.0	-46.4443
-71.285416	750.0	-59.727627
-59.833164	750.0	-71.19685
-46.563614	750.0	-80.5036
-31.879782	750.0	-87.36521
-16.227661	750.0	-91.573265
-0.08265956	750.0	-92.99996
16.064854	750.0	-91.60197
31.724426	750.0	-87.42174
46.420437	750.0	-80.58625
59.706512	750.0	-71.3031
71.179115	750.0	-59.854267
80.4898	750.0	-46.58747
87.35575	750.0	-31.905676
91.56845	750.0	-16.254807
101.0	773.0	0.0
99.466156	773.0	17.53519
94.91123	773.0	34.53779
87.47356	773.0	50.49136
77.379036	773.0	64.91136
64.93428	773.0	77.3598
50.517273	773.0	87.45859
34.565903	773.0	94.90099
17.564663	773.0	99.46096
0.02992737	773.0	100.99999
-17.505716	773.0	99.47135
-34.50966	773.0	94.921455
-50.465446	773.0	87.48851
-64.888435	773.0	77.39826
-77.34056	773.0	64.9572
-87.44362	773.0	50.543186
-94.89075	773.0	34.594025
-99.45575	773.0	17.594131
-100.999985	773.0	0.05985473
-99.47654	773.0	-17.47624
-94.93168	773.0	-34.48153
-87.50346	773.0	-50.43951
-77.417496	773.0	-64.865486
-64.9801	773.0	-77.32132
-50.569088	773.0	-87.42864
-34.622128	773.0	-94.8805
-17.62359	773.0	-99.45054
-0.08977006	773.0	-100.999954
17.446775	773.0	-99.481705
34.45341	773.0	-94.94189
50.41359	773.0	-87.5184
64.84255	773.0	-77.43671
77.302055	773.0	-65.00302
87.41365	773.0	-50.594997
94.870224	773.0	-34.65025
99.445305	773.0	-17.653069
114.0	793.0	0.0
112.26873	793.0	19.792196
107.127525	793.0	38.983246
98.73253	793.0	56.99025
87.338715	793.0	73.26629
73.29216	793.0	87.317
57.019493	793.0	98.71564
39.01498	793.0	107.11597
19.82546	793.0	112.26287
0.033779405	793.0	113.99999
-19.758928	793.0	112.2746
-38.951496	793.0	107.13907
-56.961	793.0	98.749405
-73.24041	793.0	87.36042
-87.29529	793.0	73.31803
-98.69874	793.0	57.048748
-107.1044	793.0	39.04672
-112.25699	793.0	19.858723
-113.99998	793.0	0.0675588
-112.28045	793.0	-19.725658
-107.15061	793.0	-38.919746
-98.76628	793.0	-56.931725
-87.38212	793.0	-73.21451
-73.34388	793.0	-87.27357
-57.07798	793.0	-98.68184
-39.07844	793.0	-107.09284
-19.891973	793.0	-112.2511
-0.10132462	793.0	-113.999954
19.6924	793.0	-112.286285
38.88801	793.0	-107.16213
56.90247	793.0	-98.78314
73.18863	793.0	-87.4038
87.25182	793.0	-73.36974
98.66491	793.0	-57.107224
107.081245	793.0	-39.110184
112.24519	793.0	-19.925245
127.0	813.0	0.0
125.07131	813.0	22.0492
119.34383	813.0	43.428703
109.9915	813.0	63.489136
97.29839	813.0	81.621216
81.65004	813.0	97.27421
63.521717	813.0	109.97268
43.464058	813.0	119.33095
22.086258	813.0	125.06477
0.037631445	813.0	126.99999
-22.012138	813.0	125.07784
-43.393333	813.0	119.35668
-63.45655	813.0	110.0103
-81.59239	813.0	97.32257
-97.250015	813.0	81.678856
-109.95386	813.0	63.554306
-119.31806	813.0	43.499416
-125.05822	813.0	22.123314
-126.99998	813.0	0.07526288
-125.08436	813.0	-21.975075
-119.36954	813.0	-43.357964
-110.029106	813.0	-63.42394
-97.34675	813.0	-81.56353
-81.70766	813.0	-97.225815
-63.586872	813.0	-109.93503
-43.534756	813.0	-119.30518
-22.160355	813.0	-125.05167
-0.11287918	813.0	-126.99995
21.938025	813.0	-125.09086
43.322605	813.0	-119.38238
63.391346	813.0	-110.04789
81.5347	813.0	-97.3709
97.20159	813.0	-81.73647
109.916176	813.0	-63.61945
119.29227	813.0	-43.570118
125.04509	813.0	-22.197422
141.0	828.0	0.0
138.8587	828.0	24.479822
132.49983	828.0	48.216118
122.11655	828.0	70.48794
108.0242	828.0	90.61883
90.65083	828.0	107.997345
70.52411	828.0	122.09566
48.25537	828.0	132.48553
24.520964	828.0	138.85144
0.04177979	828.0	140.99998
-24.438675	828.0	138.86595
-48.17685	828.0	132.51411
-70.45176	828.0	122.13742
-90.58682	828.0	108.05104
-107.97049	828.0	90.68282
-122.07475	828.0	70.560295
-132.47124	828.0	48.29463
-138.84416	828.0	24.562105
-140.99997	828.0	0.08355957
-138.87318	828.0	-24.397524
-132.52838	828.0	-48.13758
-122.1583	828.0	-70.41556
-108.07789	828.0	-90.55479
-90.7148	828.0	-107.94362
-70.59645	828.0	-122.05385
-48.333862	828.0	-132.45692
-24.60323	828.0	-138.83688
-0.12532255	828.0	-140.99994
24.35639	828.0	-138.8804
48.098324	828.0	-132.54263
70.37937	828.0	-122.17915
90.52277	828.0	-108.104706
107.916725	828.0	-90.74679
122.03291	828.0	-70.63262
132.4426	828.0	-48.373123
138.82959	828.0	-24.644382
163.0	850.0	0.0
160.5246	850.0	28.299368
153.17357	850.0	55.7392
141.1702	850.0	81.48606
124.879036	850.0	104.757935
104.79493	850.0	124.848
81.52787	850.0	141.14604
55.784576	850.0	153.15704
28.34693	850.0	160.5162
0.048298623	850.0	162.99998
-28.2518	850.0	160.53297
-55.693806	850.0	153.19008
-81.44423	850.0	141.19432
-104.72094	850.0	124.91007
-124.81695	850.0	104.83192
-141.12187	850.0	81.5697
-153.1405	850.0	55.82996
-160.5078	850.0	28.394491
-162.99997	850.0	0.09659724
-160.54134	850.0	-28.204231
-153.20657	850.0	-55.648407
-141.21846	850.0	-81.402374
-124.9411	850.0	-104.68391
-104.86888	850.0	-124.78589
-81.611496	850.0	-141.09772
-55.875317	850.0	-153.12398
-28.442032	850.0	-160.49937
-0.14487642	850.0	-162.99994
28.156677	850.0	-160.54968
55.603027	850.0	-153.22305
81.36055	850.0	-141.24257
104.6469	850.0	-124.97211
124.7548	850.0	-104.90587
141.07352	850.0	-81.65331
153.10739	850.0	-55.9207
160.49094	850.0	-28.489605
163.0	807.0	0.0
160.5246	807.0	28.299368
153.17357	807.0	55.7392
141.1702	807.0	81.48606
124.879036	807.0	104.757935
104.79493	807.0	124.848
81.52787	807.0	141.14604
55.784576	807.0	153.15704
28.34693	807.0	160.5162
0.048298623	807.0	162.99998
-28.2518	807.0	160.53297
-55.693806	807.0	153.19008
-81.44423	807.0	141.19432
-104.72094	807.0	124.91007
-124.81695	807.0	104.83192
-141.12187	807.0	81.5697
-153.1405	807.0	55.82996
-160.5078	807.0	28.394491
-162.99997	807.0	0.09659724
-160.54134	807.0	-28.204231
-153.20657	807.0	-55.648407
-141.21846	807.0	-81.402374
-124.9411	807.0	-104.68391
-104.86888	807.0	-124.78589
-81.611496	807.0	-141.09772
-55.875317	807.0	-153.12398
-28.442032	807.0	-160.49937
-0.14487642	807.0	-162.99994
28.156677	807.0	-160.54968
55.603027	807.0	-153.22305
81.36055	807.0	-141.24257
104.6469	807.0	-124.97211
124.7548	807.0	-104.90587
141.07352	807.0	-81.65331
153.10739	807.0	-55.9207
160.49094	807.0	-28.489605
205.0	794.0	0.0
201.88676	794.0	35.59123
192.6416	794.0	70.10145
177.54533	794.0	102.48247
157.05646	794.0	131.75078
131.7973	794.0	157.01743
102.53506	794.0	177.51495
70.158516	794.0	192.62082
35.651047	794.0	201.8762
0.060743667	794.0	204.99998
-35.531406	794.0	201.89731
-70.04436	794.0	192.66237
-102.42986	794.0	177.57568
-131.70425	794.0	157.09549
-156.97836	794.0	131.84383
-177.48457	794.0	102.58766
-192.60002	794.0	70.21559
-201.86563	794.0	35.71086
-204.99997	794.0	0.12148733
-201.90782	794.0	-35.471577
-192.6831	794.0	-69.98726
-177.60603	794.0	-102.37723
-157.13452	794.0	-131.65767
-131.8903	794.0	-156.9393
-102.64023	794.0	-177.45418
-70.27264	794.0	-192.57922
-35.770653	794.0	-201.85506
-0.18220654	794.0	-204.99991
35.411774	794.0	-201.91832
69.93019	794.0	-192.70384
102.324615	794.0	-177.63635
131.61113	794.0	-157.17351
156.9002	794.0	-131.93683
177.42374	794.0	-102.69282
192.55838	794.0	-70.32972
201.84444	794.0	-35.830486
248.0	812.0	0.0
244.23373	812.0	43.056705
233.04936	812.0	84.80566
214.78654	812.0	123.97879
190.00002	812.0	159.3863
159.4426	812.0	189.95279
124.04241	812.0	214.7498
84.874695	812.0	233.02422
43.12907	812.0	244.22098
0.073485024	812.0	247.99998
-42.984333	812.0	244.24649
-84.73659	812.0	233.07448
-123.91515	812.0	214.82327
-159.33002	812.0	190.04723
-189.90553	812.0	159.49887
-214.71304	812.0	124.10605
-232.99905	812.0	84.94374
-244.20818	812.0	43.201435
-247.99995	812.0	0.14697003
-244.25922	812.0	-42.911957
-233.09956	812.0	-84.66752
-214.85999	812.0	-123.85147
-190.09444	812.0	-159.27367
-159.5551	812.0	-189.85828
-124.16964	812.0	-214.67627
-85.01275	812.0	-232.97389
-43.273766	812.0	-244.19537
-0.22042547	812.0	-247.9999
42.839607	812.0	-244.27191
84.59847	812.0	-233.12463
123.78783	812.0	-214.89667
159.21736	812.0	-190.1416
189.81097	812.0	-159.61137
214.63945	812.0	-124.23326
232.94867	812.0	-85.0818
244.18253	812.0	-43.34615
248.0	858.0	0.0
244.23373	858.0	43.056705
233.04936	858.0	84.80566
214.78654	858.0	123.97879
190.00002	858.0	159.3863
159.4426	858.0	189.95279
124.04241	858.0	214.7498
84.874695	858.0	233.02422
43.12907	858.0	244.22098
0.073485024	858.0	247.99998
-42.984333	858.0	244.24649
-84.73659	858.0	233.07448
-123.91515	858.0	214.82327
-159.33002	858.0	190.04723
-189.90553	858.0	159.49887
-214.71304	858.0	124.10605
-232.99905	858.0	84.94374
-244.20818	858.0	43.201435
-247.99995	858.0	0.14697003
-244.25922	858.0	-42.911957
-233.09956	858.0	-84.66752
-214.85999	858.0	-123.85147
-190.09444	858.0	-159.27367
-159.5551	858.0	-189.85828
-124.16964	858.0	-214.67627
-85.01275	858.0	-232.97389
-43.273766	858.0	-244.19537
-0.22042547	858.0	-247.9999
42.839607	858.0	-244.27191
84.59847	858.0	-233.12463
123.78783	858.0	-214.89667
159.21736	858.0	-190.1416
189.81097	858.0	-159.61137
214.63945	858.0	-124.23326
232.94867	858.0	-85.0818
244.18253	858.0	-43.34615
204.0	878.0	0.0
200.90195	878.0	35.417614
191.70189	878.0	69.75949
176.67926	878.0	101.98255
156.29033	878.0	131.1081
131.15439	878.0	156.25148
102.03488	878.0	176.64903
69.81628	878.0	191.68121
35.47714	878.0	200.89145
0.060447358	878.0	203.99998
-35.35808	878.0	200.91245
-69.702675	878.0	191.72255
-101.93021	878.0	176.70946
-131.06178	878.0	156.32916
-156.21262	878.0	131.20068
-176.61879	878.0	102.087234
-191.6605	878.0	69.87308
-200.88092	878.0	35.536663
-203.99997	878.0	0.12089471
-200.92291	878.0	-35.298546
-191.7432	878.0	-69.64586
-176.73967	878.0	-101.87782
-156.36801	878.0	-131.01544
-131.24693	878.0	-156.17375
-102.13954	878.0	-176.58855
-69.92984	878.0	-191.63982
-35.59616	878.0	-200.87039
-0.18131773	878.0	-203.99991
35.239033	878.0	-200.93335
69.589066	878.0	-191.76382
101.82547	878.0	-176.76984
130.96912	878.0	-156.4068
156.13484	878.0	-131.29323
176.55826	878.0	-102.19187
191.61908	878.0	-69.98665
200.85982	878.0	-35.655704
219.0	894.0	0.0
215.67415	894.0	38.02185
205.79762	894.0	74.88886
189.67038	894.0	109.48127
167.78227	894.0	140.7484
140.7981	894.0	167.74055
109.53745	894.0	189.63792
74.94983	894.0	205.7754
38.085754	894.0	215.66289
0.06489202	894.0	218.99998
-37.95794	894.0	215.68541
-74.82787	894.0	205.8198
-109.42507	894.0	189.7028
-140.69868	894.0	167.82396
-167.69884	894.0	140.8478
-189.60547	894.0	109.59364
-205.75319	894.0	75.0108
-215.65158	894.0	38.149654
-218.99995	894.0	0.12978402
-215.69666	894.0	-37.894028
-205.84196	894.0	-74.766884
-189.73523	894.0	-109.368835
-167.86565	894.0	-140.64893
-140.89745	894.0	-167.6571
-109.6498	894.0	-189.573
-75.07174	894.0	-205.73097
-38.213528	894.0	-215.64027
-0.19464992	894.0	-218.99991
37.83014	894.0	-215.70787
74.70591	894.0	-205.8641
109.31264	894.0	-189.76761
140.59921	894.0	-167.9073
167.61534	894.0	-140.94714
189.54048	894.0	-109.705986
205.70871	894.0	-75.13272
215.62892	894.0	-38.277447
219.0	905.0	0.0
215.67415	905.0	38.02185
205.79762	905.0	74.88886
189.67038	905.0	109.48127
167.78227	905.0	140.7484
140.7981	905.0	167.74055
109.53745	905.0	189.63792
74.94983	905.0	205.7754
38.085754	905.0	215.66289
0.06489202	905.0	218.99998
-37.95794	905.0	215.68541
-74.82787	905.0	205.8198
-109.42507	905.0	189.7028
-140.69868	905.0	167.82396
-167.69884	905.0	140.8478
-189.60547	905.0	109.59364
-205.75319	905.0	75.0108
-215.65158	905.0	38.149654
-218.99995	905.0	0.12978402
-215.69666	905.0	-37.894028
-205.84196	905.0	-74.766884
-189.73523	905.0	-109.368835
-167.86565	905.0	-140.64893
-140.89745	905.0	-167.6571
-109.6498	905.0	-189.573
-75.07174	905.0	-205.73097
-38.213528	905.0	-215.64027
-0.19464992	905.0	-218.99991
37.83014	905.0	-215.70787
74.70591	905.0	-205.8641
109.31264	905.0	-189.76761
140.59921	905.0	-167.9073
167.61534	905.0	-140.94714
189.54048	905.0	-109.705986
205.70871	905.0	-75.13272
215.62892	905.0	-38.277447
225.0	922.0	0.0
221.58302	922.0	39.063545
211.43591	922.0	76.94061
194.86684	922.0	112.48076
172.37904	922.0	144.6045
144.65558	922.0	172.3362
112.538475	922.0	194.8335
77.00325	922.0	211.4131
39.1292	922.0	221.57146
0.06666988	922.0	224.99998
-38.997883	922.0	221.5946
-76.87795	922.0	211.4587
-112.42302	922.0	194.90015
-144.55344	922.0	172.42188
-172.29333	922.0	144.70663
-194.80014	922.0	112.596214
-211.39027	922.0	77.065895
-221.55984	922.0	39.194847
-224.99995	922.0	0.13333975
-221.60614	922.0	-38.93222
-211.48146	922.0	-76.815285
-194.93346	922.0	-112.36525
-172.4647	922.0	-144.50232
-144.75766	922.0	-172.25046
-112.65391	922.0	-194.76678
-77.1285	922.0	-211.36745
-39.26047	922.0	-221.54822
-0.19998279	922.0	-224.99991
38.86658	922.0	-221.61766
76.75265	922.0	-211.50421
112.3075	922.0	-194.96674
144.45123	922.0	-172.5075
172.20753	922.0	-144.80872
194.73338	922.0	-112.711624
211.34456	922.0	-77.191154
221.53658	922.0	-39.32614
256.0	932.0	0.0
252.11224	932.0	44.445633
240.56708	932.0	87.54132
221.71515	932.0	127.9781
196.12904	932.0	164.5278
164.5859	932.0	196.08029
128.04378	932.0	221.67722
87.61259	932.0	240.54112
44.520332	932.0	252.09908
0.07585551	932.0	255.99998
-44.370926	932.0	252.12541
-87.470024	932.0	240.593
-127.912415	932.0	221.75305
-164.4697	932.0	196.17778
-196.03152	932.0	164.644
-221.63927	932.0	128.10947
-240.51515	932.0	87.68386
-252.08586	932.0	44.595028
-255.99995	932.0	0.151711
-252.13855	932.0	-44.296215
-240.61891	932.0	-87.39873
-221.79095	932.0	-127.84668
-196.22652	932.0	-164.41153
-164.70204	932.0	-195.98274
-128.17511	932.0	-221.60132
-87.7551	932.0	-240.48918
-44.669693	932.0	-252.07265
-0.22753598	932.0	-255.9999
44.22153	932.0	-252.15166
87.32745	932.0	-240.64479
127.78098	932.0	-221.82881
164.35341	932.0	-196.2752
195.93391	932.0	-164.76013
221.56331	932.0	-128.24078
240.46315	932.0	-87.82638
252.05939	932.0	-44.74441
268.0	947.0	0.0
263.93	947.0	46.529022
251.84366	947.0	91.64482
232.10805	947.0	133.97708
205.32259	947.0	172.24004
172.30087	947.0	205.27156
134.04582	947.0	232.06833
91.71943	947.0	251.81648
46.607224	947.0	263.91623
0.07941124	947.0	267.99997
-46.450813	947.0	263.9438
-91.57018	947.0	251.8708
-133.90831	947.0	232.14772
-172.17921	947.0	205.37361
-205.2205	947.0	172.36168
-232.02861	947.0	134.1146
-251.7893	947.0	91.794044
-263.90237	947.0	46.68542
-267.99994	947.0	0.15882246
-263.95755	947.0	-46.3726
-251.89792	947.0	-91.495544
-232.18741	947.0	-133.8395
-205.42464	947.0	-172.11832
-172.42245	947.0	-205.16943
-134.18332	947.0	-231.98888
-91.868614	947.0	-251.76212
-46.763584	947.0	-263.88855
-0.23820172	947.0	-267.99988
46.294415	947.0	-263.97125
91.42093	947.0	-251.92502
133.77072	947.0	-232.22704
172.05748	947.0	-205.4756
205.11832	947.0	-172.48326
231.94908	947.0	-134.25208
251.73486	947.0	-91.94324
263.87466	947.0	-46.841805
304.0	964.0	0.0
299.3833	964.0	52.77919
285.6734	964.0	103.95532
263.28674	964.0	151.974
232.90324	964.0	195.37677
195.44577	964.0	232.84535
152.05199	964.0	263.2417
104.03995	964.0	285.64258
52.867893	964.0	299.36765
0.09007841	964.0	303.99997
-52.690475	964.0	299.39893
-103.87065	964.0	285.7042
-151.896	964.0	263.33176
-195.30777	964.0	232.96112
-232.78743	964.0	195.51474
-263.19662	964.0	152.12999
-285.61176	964.0	104.12459
-299.35196	964.0	52.956596
-303.99994	964.0	0.18015681
-299.41452	964.0	-52.601757
-285.73495	964.0	-103.78599
-263.37677	964.0	-151.81793
-233.01898	964.0	-195.2387
-195.58368	964.0	-232.7295
-152.20795	964.0	-263.15155
-104.209175	964.0	-285.5809
-53.04526	964.0	-299.33627
-0.27019897	964.0	-303.99988
52.51307	964.0	-299.43008
103.701355	964.0	-285.7657
151.73991	964.0	-263.42172
195.16968	964.0	-233.07681
232.67152	964.0	-195.65265
263.1064	964.0	-152.28593
285.55	964.0	-104.29382
299.32053	964.0	-53.133987
304.0	976.0	0.0
299.3833	976.0	52.77919
285.6734	976.0	103.95532
263.28674	976.0	151.974
232.90324	976.0	195.37677
195.44577	976.0	232.84535
152.05199	976.0	263.2417
104.03995	976.0	285.64258
52.867893	976.0	299.36765
0.09007841	976.0	303.99997
-52.690475	976.0	299.39893
-103.87065	976.0	285.7042
-151.896	976.0	263.33176
-195.30777	976.0	232.96112
-232.78743	976.0	195.51474
-263.19662	976.0	152.12999
-285.61176	976.0	104.12459
-299.35196	976.0	52.956596
-303.99994	976.0	0.18015681
-299.41452	976.0	-52.601757
-285.73495	976.0	-103.78599
-263.37677	976.0	-151.81793
-233.01898	976.0	-195.2387
-195.58368	976.0	-232.7295
-152.20795	976.0	-263.15155
-104.209175	976.0	-285.5809
-53.04526	976.0	-299.33627
-0.27019897	976.0	-303.99988
52.51307	976.0	-299.43008
103.701355	976.0	-285.7657
151.73991	976.0	-263.42172
195.16968	976.0	-233.07681
232.67152	976.0	-195.65265
263.1064	976.0	-152.28593
285.55	976.0	-104.29382
299.32053	976.0	-53.133987
