ply
format ascii 1.0
element vertex 180
property float x
property float y
property float z
element face 0
property list uchar int vertex_indices
end_header











205.0	37.0	0.0
201.88676	37.0	35.59123
192.6416	37.0	70.10145
177.54533	37.0	102.48247
157.05646	37.0	131.75078
131.7973	37.0	157.01743
102.53506	37.0	177.51495
70.158516	37.0	192.62082
35.651047	37.0	201.8762
0.060743667	37.0	204.99998
-35.531406	37.0	201.89731
-70.04436	37.0	192.66237
-102.42986	37.0	177.57568
-131.70425	37.0	157.09549
-156.97836	37.0	131.84383
-177.48457	37.0	102.58766
-192.60002	37.0	70.21559
-201.86563	37.0	35.71086
-204.99997	37.0	0.12148733
-201.90782	37.0	-35.471577
-192.6831	37.0	-69.98726
-177.60603	37.0	-102.37723
-157.13452	37.0	-131.65767
-131.8903	37.0	-156.9393
-102.64023	37.0	-177.45418
-70.27264	37.0	-192.57922
-35.770653	37.0	-201.85506
-0.18220654	37.0	-204.99991
35.411774	37.0	-201.91832
69.93019	37.0	-192.70384
102.324615	37.0	-177.63635
131.61113	37.0	-157.17351
156.9002	37.0	-131.93683
177.42374	37.0	-102.69282
192.55838	37.0	-70.32972
201.84444	37.0	-35.830486
245.0	60.0	0.0
241.2793	60.0	42.53586
230.23021	60.0	83.77978
212.18832	60.0	122.47904
187.70163	60.0	157.45825
157.51385	60.0	187.65497
122.54189	60.0	212.15202
83.847984	60.0	230.20537
42.60735	60.0	241.2667
0.072596096	60.0	244.99998
-42.464363	60.0	241.2919
-83.71155	60.0	230.25502
-122.416176	60.0	212.2246
-157.40263	60.0	187.74826
-187.60829	60.0	157.56946
-212.1157	60.0	122.60476
-230.18051	60.0	83.91619
-241.25404	60.0	42.678837
-244.99995	60.0	0.14519218
-241.30447	60.0	-42.39286
-230.27982	60.0	-83.64331
-212.26088	60.0	-122.35327
-187.7949	60.0	-157.34697
-157.625	60.0	-187.56161
-122.66759	60.0	-212.07939
-83.98437	60.0	-230.15565
-42.750294	60.0	-241.2414
-0.21775904	60.0	-244.9999
42.32139	60.0	-241.31702
83.5751	60.0	-230.30458
122.2904	60.0	-212.2971
157.29135	60.0	-187.8415
187.51488	60.0	-157.68059
212.04301	60.0	-122.73044
230.13075	60.0	-84.05259
241.22871	60.0	-42.8218
245.0	102.0	0.0
241.2793	102.0	42.53586
230.23021	102.0	83.77978
212.18832	102.0	122.47904
187.70163	102.0	157.45825
157.51385	102.0	187.65497
122.54189	102.0	212.15202
83.847984	102.0	230.20537
42.60735	102.0	241.2667
0.072596096	102.0	244.99998
-42.464363	102.0	241.2919
-83.71155	102.0	230.25502
-122.416176	102.0	212.2246
-157.40263	102.0	187.74826
-187.60829	102.0	157.56946
-212.1157	102.0	122.60476
-230.18051	102.0	83.91619
-241.25404	102.0	42.678837
-244.99995	102.0	0.14519218
-241.30447	102.0	-42.39286
-230.27982	102.0	-83.64331
-212.26088	102.0	-122.35327
-187.7949	102.0	-157.34697
-157.625	102.0	-187.56161
-122.66759	102.0	-212.07939
-83.98437	102.0	-230.15565
-42.750294	102.0	-241.2414
-0.21775904	102.0	-244.9999
42.32139	102.0	-241.31702
83.5751	102.0	-230.30458
122.2904	102.0	-212.2971
157.29135	102.0	-187.8415
187.51488	102.0	-157.68059
212.04301	102.0	-122.73044
230.13075	102.0	-84.05259
241.22871	102.0	-42.8218
210.0	122.0	0.0
206.81082	122.0	36.45931
197.34018	122.0	71.81124
181.8757	122.0	104.98204
160.8871	122.0	134.96422
135.01187	122.0	160.8471
105.03591	122.0	181.84459
71.8697	122.0	197.3189
36.520584	122.0	206.80002
0.062225223	122.0	209.99998
-36.398026	122.0	206.82162
-71.752754	122.0	197.36145
-104.928154	122.0	181.9068
-134.91655	122.0	160.92708
-160.80711	122.0	135.05952
-181.81346	122.0	105.0898
-197.29759	122.0	71.92817
-206.78918	122.0	36.58186
-209.99997	122.0	0.12445043
-206.8324	122.0	-36.33674
-197.3827	122.0	-71.69427
-181.9379	122.0	-104.87423
-160.96707	122.0	-134.86884
-135.10715	122.0	-160.76709
-105.14365	122.0	-181.78233
-71.9866	122.0	-197.27628
-36.64311	122.0	-206.77835
-0.1866506	122.0	-209.99991
36.275475	122.0	-206.84315
71.6358	122.0	-197.40393
104.820335	122.0	-181.96895
134.82115	122.0	-161.007
160.72704	122.0	-135.1548
181.75114	122.0	-105.19752
197.25493	122.0	-72.045074
206.76747	122.0	-36.7044
210.0	130.0	0.0
206.81082	130.0	36.45931
197.34018	130.0	71.81124
181.8757	130.0	104.98204
160.8871	130.0	134.96422
135.01187	130.0	160.8471
105.03591	130.0	181.84459
71.8697	130.0	197.3189
36.520584	130.0	206.80002
0.062225223	130.0	209.99998
-36.398026	130.0	206.82162
-71.752754	130.0	197.36145
-104.928154	130.0	181.9068
-134.91655	130.0	160.92708
-160.80711	130.0	135.05952
-181.81346	130.0	105.0898
-197.29759	130.0	71.92817
-206.78918	130.0	36.58186
-209.99997	130.0	0.12445043
-206.8324	130.0	-36.33674
-197.3827	130.0	-71.69427
-181.9379	130.0	-104.87423
-160.96707	130.0	-134.86884
-135.10715	130.0	-160.76709
-105.14365	130.0	-181.78233
-71.9866	130.0	-197.27628
-36.64311	130.0	-206.77835
-0.1866506	130.0	-209.99991
36.275475	130.0	-206.84315
71.6358	130.0	-197.40393
104.820335	130.0	-181.96895
134.82115	130.0	-161.007
160.72704	130.0	-135.1548
181.75114	130.0	-105.19752
197.25493	130.0	-72.045074
206.76747	130.0	-36.7044